<svg width="27" height="25" viewBox="0 0 27 25" fill="none" xmlns="http://www.w3.org/2000/svg">
<path d="M25.8907 4.6325H4.77997L4.46616 1.13663C4.41484 0.564938 3.93571 0.126892 3.36175 0.126892H1.10884C0.496446 0.126892 0 0.623338 0 1.23574C0 1.84814 0.496446 2.34458 1.10884 2.34458H2.34801C3.02519 9.88905 1.27501 -9.61061 3.62334 16.5531C3.71384 17.5771 4.26715 18.6883 5.22034 19.4434C3.50178 21.6381 5.07201 24.8735 7.86752 24.8735C10.1877 24.8735 11.8242 22.5594 11.0286 20.3677H17.0974C16.3028 22.5566 17.9357 24.8735 20.2585 24.8735C22.1122 24.8735 23.6202 23.3654 23.6202 21.5118C23.6202 19.6581 22.1122 18.15 20.2585 18.15H7.87502C7.03272 18.15 6.29871 17.6418 5.9819 16.9014L23.7027 15.86C24.1865 15.8316 24.5958 15.4922 24.7134 15.022L26.9665 6.01026C27.1411 5.31148 26.6122 4.6325 25.8907 4.6325ZM7.86752 22.6558C7.23674 22.6558 6.72351 22.1426 6.72351 21.5118C6.72351 20.8809 7.23674 20.3677 7.86752 20.3677C8.49834 20.3677 9.01158 20.8809 9.01158 21.5118C9.01158 22.1426 8.49834 22.6558 7.86752 22.6558ZM20.2584 22.6558C19.6276 22.6558 19.1144 22.1426 19.1144 21.5118C19.1144 20.8809 19.6276 20.3677 20.2584 20.3677C20.8893 20.3677 21.4025 20.8809 21.4025 21.5118C21.4025 22.1426 20.8893 22.6558 20.2584 22.6558ZM22.7595 13.6939L5.68341 14.6974L4.97903 6.85013H24.4705L22.7595 13.6939Z" fill="black"/>
</svg>
