<svg width="28" height="31" viewBox="0 0 28 31" fill="none" xmlns="http://www.w3.org/2000/svg">
<path d="M0 30.0334C0 30.6135 0.386742 31.0002 0.966854 31.0002H26.2984C26.8786 31.0002 27.2653 30.6135 27.2653 30.0334C27.2653 29.4533 26.8786 29.0665 26.2984 29.0665H17.5968C18.9503 28.003 20.0139 26.6494 20.6907 25.1024C24.3647 24.5223 27.2653 21.3317 27.2653 17.561C27.2653 15.3372 25.525 13.5969 23.3012 13.5969H21.4642V11.6631C21.4642 11.083 21.0774 10.6963 20.4973 10.6963H3.19062C2.61051 10.6963 2.22376 11.083 2.22376 11.6631V21.4284C2.22376 24.5223 3.77073 27.3262 6.09118 29.0665H0.966854C0.483427 29.0665 0 29.4533 0 30.0334ZM23.3012 15.5306C24.4614 15.5306 25.3316 16.4974 25.3316 17.561C25.3316 20.0748 23.6879 22.2985 21.3675 22.9753C21.4642 22.4919 21.4642 21.9118 21.4642 21.4284V15.5306H23.3012ZM4.15747 21.4284V12.63H19.5305V21.4284C19.5305 25.3925 16.4365 28.7765 12.5691 29.0665H11.2155C7.15472 28.6798 4.15747 25.3925 4.15747 21.4284Z" fill="white"/>
<path d="M7.92811 3.25136C8.12148 2.76793 7.83143 2.18782 7.348 1.99444C6.86457 1.89776 6.28446 2.09113 6.09109 2.67124C5.9944 3.05798 4.64081 4.60495 5.70435 6.2486C5.80103 6.34529 6.86457 7.50551 6.28446 8.08563C5.89772 8.47237 5.89772 9.05248 6.28446 9.43922C6.6712 9.82596 7.25131 9.82596 7.63806 9.43922C8.89497 8.18231 8.31485 6.2486 7.25131 5.08838C7.05794 4.60495 7.73474 3.92815 7.92811 3.25136Z" fill="white"/>
<path d="M12.8598 1.31748C13.0531 0.834053 12.7631 0.253941 12.2796 0.0605698C11.7962 -0.132801 11.2161 0.157255 11.0227 0.640682C10.926 1.02742 9.57245 2.57439 10.636 4.21804C10.7327 4.31473 11.7962 5.47495 11.2161 6.05507C10.8294 6.44181 10.8294 7.02192 11.2161 7.40866C11.6028 7.79541 12.183 7.79541 12.5697 7.40866C13.8266 6.15175 13.2465 4.21804 12.183 3.05782C11.9896 2.67108 12.6664 1.99428 12.8598 1.31748Z" fill="white"/>
<path d="M17.7904 3.25107C17.9838 2.76765 17.6937 2.18753 17.2103 1.99416C16.7269 1.80079 16.1468 2.09085 15.9534 2.57428C15.8567 2.96102 14.5031 4.50799 15.5667 6.15164C15.6633 6.24832 16.7269 7.40855 16.1468 7.98866C15.76 8.3754 15.76 8.95552 16.1468 9.34226C16.5335 9.729 17.1136 9.729 17.5004 9.34226C18.7573 8.08535 18.1772 6.15164 17.1136 4.99141C16.9202 4.60467 17.597 3.92787 17.7904 3.25107Z" fill="white"/>
</svg>
