<svg width="24" height="24" viewBox="0 0 24 24" fill="none" xmlns="http://www.w3.org/2000/svg">
<g clip-path="url(#clip0)">
<path d="M5.36939 12.6746C5.36939 15.9588 8.04127 18.6307 11.3254 18.6307C14.6096 18.6307 17.2815 15.9588 17.2815 12.6746C17.2815 9.39047 14.6096 6.71859 11.3254 6.71859C8.04127 6.71859 5.36939 9.39047 5.36939 12.6746ZM11.3254 8.21859C13.7825 8.21859 15.7815 10.2176 15.7815 12.6746C15.7815 15.1317 13.7825 17.1307 11.3254 17.1307C8.86837 17.1307 6.86939 15.1317 6.86939 12.6746C6.86939 10.2176 8.86833 8.21859 11.3254 8.21859ZM11.3254 15.8004C13.049 15.8004 14.4513 14.3982 14.4513 12.6746C14.4513 10.951 13.049 9.54872 11.3254 9.54872C9.60183 9.54872 8.19956 10.951 8.19956 12.6746C8.19956 14.3982 9.60183 15.8004 11.3254 15.8004ZM11.3254 11.0488C12.2219 11.0488 12.9513 11.7781 12.9513 12.6746C12.9513 13.5711 12.2219 14.3005 11.3254 14.3005C10.4289 14.3005 9.69956 13.5711 9.69956 12.6746C9.69956 11.7781 10.4289 11.0488 11.3254 11.0488ZM20.2877 3.71231C17.8938 1.31841 14.7109 0 11.3254 0C10.9112 0 10.5754 0.335812 10.5754 0.75V1.37423C7.83258 1.55241 5.27841 2.70502 3.31711 4.66631C1.17806 6.80541 0 9.64945 0 12.6746C0 15.6997 1.17806 18.5438 3.31716 20.6828C5.4562 22.8219 8.3003 24 11.3254 24C14.3505 24 17.1946 22.8219 19.3337 20.6828C21.295 18.7215 22.4476 16.1674 22.6258 13.4246H23.25C23.6642 13.4246 24 13.0888 24 12.6746C24 9.28908 22.6816 6.10622 20.2877 3.71231ZM12.0754 1.52489C17.6409 1.89544 22.1046 6.35906 22.4751 11.9246H19.9931C19.6327 7.72467 16.2753 4.36725 12.0754 4.00692V1.52489ZM11.3254 22.5C5.90766 22.5 1.5 18.0923 1.5 12.6746C1.5 7.50914 5.50669 3.26198 10.5754 2.87756V4.72481C10.5754 5.139 10.9112 5.47481 11.3254 5.47481C15.2953 5.47481 18.5251 8.70459 18.5251 12.6746C18.5251 13.0888 18.861 13.4246 19.2751 13.4246H21.1224C20.738 18.4933 16.4908 22.5 11.3254 22.5ZM3.64327 13.661L2.47617 12.9872C2.11744 12.7801 1.99453 12.3214 2.20162 11.9627C2.40872 11.604 2.86744 11.4811 3.22612 11.6881L4.39322 12.362C4.75195 12.5691 4.87486 13.0278 4.66777 13.3865C4.52887 13.6271 4.27673 13.7616 4.01752 13.7616C3.8903 13.7616 3.76139 13.7292 3.64327 13.661ZM5.91567 16.62C5.91567 17.0341 5.57986 17.37 5.16567 17.37H3.81802C3.40383 17.37 3.06802 17.0341 3.06802 16.62C3.06802 16.2058 3.40383 15.87 3.81802 15.87H5.16567C5.57991 15.87 5.91567 16.2058 5.91567 16.62ZM8.61314 18.7962C8.82023 19.155 8.69733 19.6136 8.33864 19.8207L7.17155 20.4945C7.05342 20.5627 6.92447 20.5951 6.79725 20.5951C6.53803 20.5951 6.28594 20.4607 6.147 20.22C5.93991 19.8613 6.06281 19.4026 6.4215 19.1955L7.58859 18.5217C7.94733 18.3146 8.406 18.4375 8.61314 18.7962ZM12.3119 20.3567L11.638 21.5238C11.4991 21.7644 11.247 21.8989 10.9878 21.8989C10.8606 21.8989 10.7316 21.8665 10.6135 21.7983C10.2548 21.5912 10.1319 21.1325 10.339 20.7738L11.0128 19.6067C11.2199 19.248 11.6786 19.1252 12.0373 19.3322C12.396 19.5393 12.519 19.998 12.3119 20.3567ZM16.0208 18.8343V20.182C16.0208 20.5962 15.6849 20.932 15.2708 20.932C14.8566 20.932 14.5208 20.5962 14.5208 20.182V18.8343C14.5208 18.4201 14.8566 18.0843 15.2708 18.0843C15.6849 18.0843 16.0208 18.4201 16.0208 18.8343ZM19.1454 16.8285C19.3525 17.1872 19.2296 17.6459 18.8709 17.853C18.7528 17.9212 18.6238 17.9536 18.4966 17.9536C18.2374 17.9536 17.9853 17.8191 17.8463 17.5785L17.1725 16.4114C16.9654 16.0527 17.0883 15.594 17.447 15.3869C17.8057 15.1798 18.2644 15.3027 18.4715 15.6614L19.1454 16.8285ZM3.50541 8.52066C3.29831 8.16192 3.42122 7.70325 3.77991 7.49616C4.13864 7.28897 4.59731 7.41197 4.80441 7.77066L5.47823 8.93775C5.68533 9.29648 5.56242 9.75516 5.20373 9.96225C5.08561 10.0305 4.95666 10.0628 4.82944 10.0628C4.57022 10.0628 4.31812 9.92836 4.17919 9.68775L3.50541 8.52066ZM6.63005 6.51487V5.16722C6.63005 4.75303 6.96586 4.41722 7.38005 4.41722C7.79423 4.41722 8.13005 4.75303 8.13005 5.16722V6.51487C8.13005 6.92906 7.79423 7.26487 7.38005 7.26487C6.96586 7.26487 6.63005 6.92906 6.63005 6.51487Z" fill="#BB261A"/>
</g>
<defs>
<clipPath id="clip0">
<rect width="24" height="24" fill="white"/>
</clipPath>
</defs>
</svg>
