<svg width="18" height="18" viewBox="0 0 18 18" fill="none" xmlns="http://www.w3.org/2000/svg">
<path d="M7.11343 5.2705C7.5312 4.31161 7.31994 3.19476 6.58085 2.45468L4.87434 0.748982C4.30743 0.175302 3.49921 -0.0907387 2.70236 0.0339899C1.89651 0.15234 1.19655 0.650546 0.820766 1.37319C-0.00435649 2.92603 -0.216608 4.73201 0.226037 6.43381C1.31653 10.7532 7.25332 16.6941 11.5719 17.7765C12.1549 17.9243 12.7539 17.9996 13.3554 18.0006C14.4982 17.9999 15.6235 17.719 16.6326 17.1825C17.8776 16.5332 18.3606 14.9975 17.7113 13.7524C17.5921 13.5238 17.4388 13.3147 17.2567 13.1322L15.551 11.4257C14.8107 10.6865 13.6935 10.4753 12.7344 10.8931C12.2868 11.086 11.8786 11.3598 11.5302 11.7006C11.113 12.1203 9.5742 11.5124 8.03373 9.9728C6.49326 8.43319 5.88708 6.89438 6.30184 6.47551C6.64407 6.12705 6.91918 5.7186 7.11343 5.2705ZM6.87457 11.1312C8.75042 13.0054 11.2734 14.2693 12.6829 12.859C12.8905 12.6602 13.1325 12.5008 13.3971 12.3886C13.7369 12.2438 14.1307 12.3213 14.3902 12.5841L16.0959 14.2898C16.2992 14.4908 16.3935 14.7772 16.3495 15.0596C16.3068 15.3499 16.1268 15.6017 15.866 15.7362C14.6715 16.3781 13.2773 16.5407 11.9671 16.191C8.25629 15.2551 2.75144 9.75031 1.81558 6.03461C1.46627 4.72322 1.6292 3.32803 2.27127 2.13237C2.40673 1.87306 2.65835 1.69447 2.94781 1.65217C2.99299 1.64497 3.03867 1.64139 3.08445 1.64154C3.32235 1.64147 3.55037 1.73661 3.71762 1.90577L5.42332 3.61147C5.68578 3.87088 5.76331 4.2642 5.61885 4.60381C5.50712 4.87013 5.3477 5.11385 5.14846 5.32291C3.73803 6.72915 5.00034 9.24963 6.87457 11.1312Z" fill="#BB261A"/>
</svg>
