<svg width="24" height="24" viewBox="0 0 24 24" fill="none" xmlns="http://www.w3.org/2000/svg">
<path d="M6.375 16.2188C6.76333 16.2188 7.07812 15.904 7.07812 15.5156C7.07812 15.1273 6.76333 14.8125 6.375 14.8125C5.98667 14.8125 5.67188 15.1273 5.67188 15.5156C5.67188 15.904 5.98667 16.2188 6.375 16.2188Z" fill="#BB261A"/>
<path d="M10.5938 16.2188C10.9821 16.2188 11.2969 15.904 11.2969 15.5156C11.2969 15.1273 10.9821 14.8125 10.5938 14.8125C10.2054 14.8125 9.89062 15.1273 9.89062 15.5156C9.89062 15.904 10.2054 16.2188 10.5938 16.2188Z" fill="#BB261A"/>
<path d="M14.8125 16.2188C15.2008 16.2188 15.5156 15.904 15.5156 15.5156C15.5156 15.1273 15.2008 14.8125 14.8125 14.8125C14.4242 14.8125 14.1094 15.1273 14.1094 15.5156C14.1094 15.904 14.4242 16.2188 14.8125 16.2188Z" fill="#BB261A"/>
<path d="M23.2969 9.1875H21.8906C21.7041 9.1875 21.5253 9.26156 21.3935 9.39342L20.1931 10.5938H18.3281V9.89062C18.3281 9.50231 18.0133 9.1875 17.625 9.1875H14.1094V7.78125H14.8125C15.2008 7.78125 15.5156 7.46644 15.5156 7.07812V4.96875H16.2188C16.6071 4.96875 16.9219 4.65394 16.9219 4.26562C16.9219 3.87731 16.6071 3.5625 16.2188 3.5625C15.8439 3.5625 5.55361 3.5625 4.96875 3.5625C4.58044 3.5625 4.26562 3.87731 4.26562 4.26562C4.26562 4.65394 4.58044 4.96875 4.96875 4.96875H5.67188V7.07812C5.67188 7.46644 5.98669 7.78125 6.375 7.78125H7.07812V9.1875H3.5625C3.17419 9.1875 2.85938 9.50231 2.85938 9.89062V10.5938H1.40625V9.89062C1.40625 9.50231 1.09144 9.1875 0.703125 9.1875C0.314812 9.1875 0 9.50231 0 9.89062V18.3281C0 18.7164 0.314812 19.0312 0.703125 19.0312C1.09144 19.0312 1.40625 18.7164 1.40625 18.3281V17.625H3.27127L5.8778 20.2315C6.00966 20.3634 6.18848 20.4375 6.375 20.4375H17.625C18.0133 20.4375 18.3281 20.1227 18.3281 19.7344V19.0312H20.1931L21.3934 20.2315C21.5253 20.3634 21.7041 20.4375 21.8906 20.4375H23.2969C23.6852 20.4375 24 20.1227 24 19.7344V9.89062C24 9.50231 23.6852 9.1875 23.2969 9.1875ZM2.85938 16.2188H1.40625V12H2.85938V16.2188ZM7.07812 4.96875H14.1094V6.375C13.0637 6.375 8.00869 6.375 7.07812 6.375V4.96875ZM12.7031 7.78125V9.1875H8.48438V7.78125H12.7031ZM16.9219 18.3281V19.0312H6.66623L4.26562 16.6306V13.4062H16.9219V18.3281ZM16.9219 12H4.26562C4.26562 11.5082 4.26562 11.0856 4.26562 10.5938C5.88398 10.5938 15.6931 10.5938 16.9219 10.5938C16.9219 11.0856 16.9219 11.5082 16.9219 12ZM19.7812 17.625H18.3281V12H19.7812V17.625ZM22.5938 19.0312H22.1819L21.1875 18.0369V11.5881L22.1819 10.5938H22.5938V19.0312Z" fill="#BB261A"/>
</svg>
