<svg width="20" height="20" viewBox="0 0 20 20" fill="none" xmlns="http://www.w3.org/2000/svg">
<path d="M14.6875 18.75C13.4813 18.75 12.5 17.7687 12.5 16.5625V8.35438C11.3344 7.61125 10.625 6.33313 10.625 4.93375C10.625 3.4025 11.4738 2.0175 12.84 1.31813C13.0344 1.21938 13.2656 1.2275 13.4512 1.34125C13.6369 1.45563 13.75 1.65688 13.75 1.875V4.57688L14.6875 4.95188L15.625 4.57688V1.875C15.625 1.65688 15.7381 1.45563 15.9238 1.34125C16.1094 1.2275 16.3406 1.21938 16.535 1.31813C17.9012 2.01813 18.75 3.4025 18.75 4.93438C18.75 6.33313 18.0406 7.61125 16.875 8.355V16.5625C16.875 17.7687 15.8938 18.75 14.6875 18.75ZM12.5 3.16625C12.1019 3.65688 11.875 4.27563 11.875 4.93375C11.875 5.9925 12.4631 6.95188 13.41 7.43688C13.6187 7.54375 13.75 7.75875 13.75 7.99313V16.5625C13.75 17.0794 14.1706 17.5 14.6875 17.5C15.2044 17.5 15.625 17.0794 15.625 16.5625V7.99313C15.625 7.75875 15.7563 7.54375 15.965 7.43688C16.9119 6.95188 17.5 5.99313 17.5 4.93438C17.5 4.27625 17.2731 3.6575 16.875 3.16688V5C16.875 5.25563 16.7194 5.485 16.4825 5.58063L14.92 6.20563C14.7706 6.26563 14.605 6.26563 14.4556 6.20563L12.8931 5.58063C12.6556 5.485 12.5 5.25563 12.5 5V3.16625Z" fill="black"/>
<path d="M10.6712 18.75H9.32938C8.68 18.75 8.1325 18.2431 8.08312 17.5962L8.00437 16.5744C7.57562 16.4444 7.16062 16.2719 6.76375 16.0594L5.985 16.7262C5.49188 17.1494 4.74688 17.12 4.28813 16.6619L3.33812 15.7113C2.87937 15.2525 2.85063 14.5069 3.27312 14.0138L3.94 13.2356C3.7275 12.8387 3.555 12.4237 3.425 11.995L2.40375 11.9169C1.75687 11.8681 1.25 11.3206 1.25 10.6712V9.32875C1.25 8.67937 1.75687 8.13188 2.40437 8.0825L3.42562 8.00437C3.55562 7.575 3.72812 7.16 3.94062 6.76375L3.27312 5.98438C2.85063 5.49187 2.87937 4.74688 3.33875 4.28688L4.2875 3.3375C4.74688 2.87813 5.4925 2.85 5.985 3.2725L6.76375 3.93937C7.16062 3.72688 7.57562 3.55438 8.00437 3.42438L8.08312 2.4025C8.1325 1.75688 8.68 1.25 9.32875 1.25H10C10.345 1.25 10.625 1.52938 10.625 1.875C10.625 2.22062 10.345 2.5 10 2.5H9.32875L9.21625 3.96312C9.195 4.23563 8.99937 4.4625 8.73375 4.52375C8.12937 4.66313 7.55437 4.90125 7.025 5.23313C6.79437 5.37875 6.495 5.35688 6.28687 5.1775L5.17125 4.22188L4.2225 5.17187L5.17812 6.28687C5.35625 6.49438 5.37813 6.79375 5.23313 7.025C4.90188 7.555 4.66313 8.13 4.52375 8.73375C4.4625 9 4.235 9.19563 3.9625 9.21625L2.5 9.32875V10.6712L3.9625 10.7837C4.235 10.8044 4.4625 11.0006 4.52375 11.2662C4.66313 11.8706 4.90125 12.4456 5.23313 12.975C5.37813 13.2063 5.35562 13.5056 5.17812 13.7131L4.2225 14.8281L5.17187 15.7781L6.28687 14.8225C6.495 14.6438 6.79437 14.6219 7.025 14.7669C7.555 15.0981 8.13 15.3369 8.73375 15.4762C9 15.5381 9.19563 15.765 9.21625 16.0369L9.32875 17.5H10.6706C10.6969 17.1562 10.9962 16.8994 11.3419 16.925C11.6862 16.9513 11.9437 17.2519 11.9169 17.5962C11.8675 18.2431 11.32 18.75 10.6712 18.75Z" fill="black"/>
<path d="M5.625 10C5.625 7.85375 7.15875 6.03937 9.27187 5.68562C9.61125 5.625 9.935 5.85812 9.99125 6.19875C10.0481 6.53938 9.81875 6.86125 9.47812 6.91813C7.97 7.17125 6.875 8.4675 6.875 10C6.875 12.1581 9.01875 13.6631 11.0419 12.9475C11.3656 12.8319 11.7244 13.0019 11.84 13.3275C11.955 13.6531 11.785 14.01 11.4594 14.125C8.61375 15.1319 5.625 13.01 5.625 10Z" fill="black"/>
</svg>
