<svg width="20" height="20" viewBox="0 0 20 20" fill="none" xmlns="http://www.w3.org/2000/svg">
<path d="M5.95419 1.05419C5.61669 0.983358 5.28752 1.20836 5.22085 1.54586L1.88752 18.2125C1.82086 18.55 2.03752 18.8792 2.37919 18.9459C2.42086 18.9542 2.46252 18.9584 2.50419 18.9584C2.79586 18.9584 3.05836 18.7542 3.11669 18.4542L6.45002 1.78752C6.51252 1.45002 6.29585 1.12086 5.95419 1.05419Z" fill="black"/>
<path d="M16.8874 18.4542C16.9458 18.7501 17.2083 18.9584 17.4999 18.9584C17.5416 18.9584 17.5833 18.9542 17.6249 18.9459C17.9624 18.8792 18.1833 18.5501 18.1166 18.2126L14.7833 1.5459C14.7166 1.2084 14.3874 0.987567 14.0499 1.05423C13.7124 1.1209 13.4916 1.45007 13.5583 1.78757L16.8874 18.4542Z" fill="black"/>
<path d="M10.625 2.5C10.625 2.15417 10.3458 1.875 10 1.875C9.65417 1.875 9.375 2.15417 9.375 2.5V5C9.375 5.34583 9.65417 5.625 10 5.625C10.3458 5.625 10.625 5.34583 10.625 5V2.5Z" fill="black"/>
<path d="M10.625 7.5C10.625 7.15417 10.3458 6.875 10 6.875C9.65417 6.875 9.375 7.15417 9.375 7.5V10.8333C9.375 11.1792 9.65417 11.4583 10 11.4583C10.3458 11.4583 10.625 11.1792 10.625 10.8333V7.5Z" fill="black"/>
<path d="M10 12.2917C9.65417 12.2917 9.375 12.5709 9.375 12.9167V17.5001C9.375 17.8459 9.65417 18.1251 10 18.1251C10.3458 18.1251 10.625 17.8459 10.625 17.5001V12.9167C10.625 12.5709 10.3458 12.2917 10 12.2917Z" fill="black"/>
</svg>
