<svg width="20" height="16" viewBox="0 0 20 16" fill="none" xmlns="http://www.w3.org/2000/svg">
<path d="M17.3335 15.3333H2.66683C1.68647 15.3627 0.866878 14.5939 0.833496 13.6137V2.38542C0.866875 1.40533 1.68662 0.636817 2.66683 0.666674H17.3335C18.3137 0.636817 19.1335 1.40533 19.1668 2.38542V13.6146C19.133 14.5945 18.3135 15.3627 17.3335 15.3333ZM2.66683 2.50001V13.4899L17.3335 13.5V2.51009L2.66683 2.50001ZM11.311 11.6667H4.50016C4.56756 10.9077 4.92673 10.2045 5.50208 9.70501C6.14267 9.0695 7.00341 8.70511 7.90558 8.68751C8.80775 8.70511 9.66849 9.0695 10.3091 9.70501C10.8843 10.2046 11.2434 10.9078 11.311 11.6667ZM15.5002 10.75H12.7502V8.91667H15.5002V10.75ZM7.90558 8.00001C7.41431 8.01708 6.93801 7.82941 6.59043 7.48183C6.24284 7.13424 6.05517 6.65794 6.07225 6.16667C6.05545 5.67549 6.24321 5.19935 6.59073 4.85182C6.93825 4.5043 7.41439 4.31654 7.90558 4.33334C8.39677 4.31654 8.8729 4.5043 9.22043 4.85182C9.56795 5.19935 9.75571 5.67549 9.73891 6.16667C9.75598 6.65794 9.56832 7.13424 9.22073 7.48183C8.87315 7.82941 8.39684 8.01708 7.90558 8.00001ZM15.5002 7.08334H11.8335V5.25001H15.5002V7.08334Z" fill="#bb261a"/>
</svg>
