<svg width="27" height="27" viewBox="0 0 27 27" fill="none" xmlns="http://www.w3.org/2000/svg">
<g clip-path="url(#clip0)">
<path d="M25.8907 5.6325H4.77997L4.46616 2.13663C4.41484 1.56494 3.93571 1.12689 3.36175 1.12689H1.10884C0.496446 1.12689 0 1.62334 0 2.23574C0 2.84814 0.496446 3.34458 1.10884 3.34458H2.34801C3.02519 10.8891 1.27501 -8.61061 3.62334 17.5531C3.71384 18.5771 4.26715 19.6883 5.22034 20.4434C3.50178 22.6381 5.07201 25.8735 7.86752 25.8735C10.1877 25.8735 11.8242 23.5594 11.0286 21.3677H17.0974C16.3028 23.5566 17.9357 25.8735 20.2585 25.8735C22.1122 25.8735 23.6202 24.3654 23.6202 22.5118C23.6202 20.6581 22.1122 19.15 20.2585 19.15H7.87502C7.03272 19.15 6.29871 18.6418 5.9819 17.9014L23.7027 16.86C24.1865 16.8316 24.5958 16.4922 24.7134 16.022L26.9665 7.01026C27.1411 6.31148 26.6122 5.6325 25.8907 5.6325ZM7.86752 23.6558C7.23674 23.6558 6.72351 23.1426 6.72351 22.5118C6.72351 21.8809 7.23674 21.3677 7.86752 21.3677C8.49834 21.3677 9.01158 21.8809 9.01158 22.5118C9.01158 23.1426 8.49834 23.6558 7.86752 23.6558ZM20.2584 23.6558C19.6276 23.6558 19.1144 23.1426 19.1144 22.5118C19.1144 21.8809 19.6276 21.3677 20.2584 21.3677C20.8893 21.3677 21.4025 21.8809 21.4025 22.5118C21.4025 23.1426 20.8893 23.6558 20.2584 23.6558ZM22.7595 14.6939L5.68341 15.6974L4.97903 7.85013H24.4705L22.7595 14.6939Z" fill="#bb261a"/>
</g>
<defs>
<clipPath id="clip0">
<rect width="27" height="27" fill="white"/>
</clipPath>
</defs>
</svg>
