<svg width="20" height="20" viewBox="0 0 20 20" fill="none" xmlns="http://www.w3.org/2000/svg">
<g clip-path="url(#clip0)">
<path d="M19.1783 4.17245H3.54072L3.30827 1.58291C3.27025 1.15944 2.91534 0.834961 2.49019 0.834961H0.821366C0.367738 0.834961 0 1.2027 0 1.65633C0 2.10996 0.367738 2.47769 0.821366 2.47769H1.73926C2.24088 8.06619 0.944454 -6.37801 2.68395 13.0025C2.75099 13.761 3.16085 14.5842 3.86692 15.1435C2.59391 16.7692 3.75705 19.1658 5.82779 19.1658C7.54648 19.1658 8.7587 17.4516 8.16931 15.8281H12.6648C12.0761 17.4496 13.2857 19.1658 15.0063 19.1658C16.3794 19.1658 17.4965 18.0487 17.4965 16.6756C17.4965 15.3025 16.3794 14.1854 15.0063 14.1854H5.83334C5.20942 14.1854 4.66571 13.809 4.43104 13.2606L17.5576 12.4891C17.9159 12.4681 18.2191 12.2166 18.3062 11.8684L19.9752 5.19302C20.1045 4.6754 19.7127 4.17245 19.1783 4.17245ZM5.82779 17.5231C5.36055 17.5231 4.98038 17.1429 4.98038 16.6756C4.98038 16.2083 5.36055 15.8281 5.82779 15.8281C6.29507 15.8281 6.67525 16.2083 6.67525 16.6756C6.67525 17.1429 6.29507 17.5231 5.82779 17.5231ZM15.0062 17.5231C14.539 17.5231 14.1588 17.1429 14.1588 16.6756C14.1588 16.2083 14.539 15.8281 15.0062 15.8281C15.4735 15.8281 15.8537 16.2083 15.8537 16.6756C15.8537 17.1429 15.4735 17.5231 15.0062 17.5231ZM16.8589 10.8846L4.20993 11.628L3.68817 5.81514H18.1263L16.8589 10.8846Z" fill="white"/>
</g>
<defs>
<clipPath id="clip0">
<rect width="20" height="20" fill="white"/>
</clipPath>
</defs>
</svg>
