<svg width="24" height="24" viewBox="0 0 24 24" fill="none" xmlns="http://www.w3.org/2000/svg">
<g clip-path="url(#clip0)">
<path d="M19.0781 0C18.0681 0 17.0973 0.303772 16.2708 0.878723C16.2706 0.878906 16.2702 0.879089 16.27 0.879272C16.27 0.879272 16.27 0.879272 16.2698 0.879272L3.32483 9.91058C3.3241 9.91095 3.32355 9.91132 3.323 9.91168C1.24237 11.3589 0 13.7342 0 16.2656C0 20.5303 3.46967 24 7.73438 24C9.18604 24 10.1616 23.599 10.3121 23.5598L21.655 19.5813C21.6553 19.5813 21.6555 19.5811 21.6557 19.5811C21.6561 19.5809 21.6564 19.5809 21.6568 19.5807C23.0583 19.0851 24 17.7528 24 16.2656V4.92188C24 2.20789 21.7921 0 19.0781 0ZM1.40625 16.2656C1.40625 14.1943 2.42303 12.2507 4.12592 11.0663C8.27216 8.1828 14.0625 11.1359 14.0625 16.2656C14.0625 19.717 11.2687 22.5938 7.73438 22.5938C4.24512 22.5938 1.40625 19.7549 1.40625 16.2656ZM20.4844 18.375C19.3213 18.375 18.375 17.4287 18.375 16.2656C18.375 15.1025 19.3213 14.1562 20.4844 14.1562C21.6475 14.1562 22.5938 15.1025 22.5938 16.2656C22.5938 17.4183 21.6603 18.375 20.4844 18.375ZM22.5938 13.455C22.0058 13.0126 21.2752 12.75 20.4844 12.75C18.5458 12.75 16.9688 14.3271 16.9688 16.2656C16.9688 17.4818 17.5897 18.5554 18.5308 19.1869L14.0197 20.7691C14.9401 19.4837 15.4688 17.9183 15.4688 16.2656C15.4688 12.0092 12.0126 8.54498 7.75909 8.53162L14.2421 4.00873C14.1857 4.30719 14.1562 4.61261 14.1562 4.92188C14.1562 7.63586 16.3641 9.84375 19.0781 9.84375C20.4542 9.84375 21.6996 9.27594 22.5938 8.36261V13.455ZM19.0781 8.4375C17.1396 8.4375 15.5625 6.86041 15.5625 4.92188C15.5625 2.98608 17.131 1.40625 19.0781 1.40625C21.0167 1.40625 22.5938 2.98334 22.5938 4.92188C22.5938 6.86041 21.0167 8.4375 19.0781 8.4375Z" fill="#BB261A"/>
<path d="M19.0781 2.8125C17.915 2.8125 16.9688 3.75879 16.9688 4.92188C16.9688 6.08496 17.915 7.03125 19.0781 7.03125C20.2412 7.03125 21.1875 6.08496 21.1875 4.92188C21.1875 3.75879 20.2412 2.8125 19.0781 2.8125ZM19.0781 5.625C18.6905 5.625 18.375 5.30951 18.375 4.92188C18.375 4.53424 18.6905 4.21875 19.0781 4.21875C19.4658 4.21875 19.7812 4.53424 19.7812 4.92188C19.7812 5.30951 19.4658 5.625 19.0781 5.625Z" fill="#BB261A"/>
<path d="M21.1875 16.2656C21.1875 16.654 20.8727 16.9688 20.4844 16.9688C20.096 16.9688 19.7812 16.654 19.7812 16.2656C19.7812 15.8773 20.096 15.5625 20.4844 15.5625C20.8727 15.5625 21.1875 15.8773 21.1875 16.2656Z" fill="#BB261A"/>
<path d="M8.4375 12.0469C8.4375 12.4352 8.12274 12.75 7.73438 12.75C7.34601 12.75 7.03125 12.4352 7.03125 12.0469C7.03125 11.6585 7.34601 11.3438 7.73438 11.3438C8.12274 11.3438 8.4375 11.6585 8.4375 12.0469Z" fill="#BB261A"/>
<path d="M8.4375 20.4844C8.4375 20.8727 8.12274 21.1875 7.73438 21.1875C7.34601 21.1875 7.03125 20.8727 7.03125 20.4844C7.03125 20.096 7.34601 19.7812 7.73438 19.7812C8.12274 19.7812 8.4375 20.096 8.4375 20.4844Z" fill="#BB261A"/>
<path d="M5.2484 12.7853C4.97374 12.5107 4.52861 12.5107 4.25395 12.7853C3.97948 13.0598 3.97948 13.5051 4.25395 13.7796C4.52861 14.0543 4.97374 14.0543 5.2484 13.7796C5.52287 13.5051 5.52287 13.0598 5.2484 12.7853Z" fill="#BB261A"/>
<path d="M11.2145 18.7515C10.9398 18.477 10.4947 18.477 10.22 18.7515C9.94554 19.0262 9.94554 19.4713 10.22 19.746C10.4947 20.0204 10.9398 20.0204 11.2145 19.746C11.4891 19.4713 11.4891 19.0262 11.2145 18.7515Z" fill="#BB261A"/>
<path d="M4.21875 16.2656C4.21875 16.654 3.90399 16.9688 3.51562 16.9688C3.12726 16.9688 2.8125 16.654 2.8125 16.2656C2.8125 15.8773 3.12726 15.5625 3.51562 15.5625C3.90399 15.5625 4.21875 15.8773 4.21875 16.2656Z" fill="#BB261A"/>
<path d="M12.6562 16.2656C12.6562 16.654 12.3415 16.9688 11.9531 16.9688C11.5648 16.9688 11.25 16.654 11.25 16.2656C11.25 15.8773 11.5648 15.5625 11.9531 15.5625C12.3415 15.5625 12.6562 15.8773 12.6562 16.2656Z" fill="#BB261A"/>
<path d="M5.24829 18.7515C4.97363 18.477 4.5285 18.477 4.25385 18.7515C3.97919 19.0262 3.97919 19.4713 4.25385 19.746C4.5285 20.0204 4.97363 20.0204 5.24829 19.746C5.52277 19.4713 5.52277 19.0262 5.24829 18.7515Z" fill="#BB261A"/>
<path d="M11.2145 12.7853C10.9399 12.5107 10.4948 12.5107 10.2203 12.7853C9.94562 13.0598 9.94562 13.5051 10.2203 13.7796C10.4948 14.0543 10.9399 14.0543 11.2145 13.7796C11.4892 13.5051 11.4892 13.0598 11.2145 12.7853Z" fill="#BB261A"/>
<path d="M7.73438 14.1562C6.57129 14.1562 5.625 15.1025 5.625 16.2656C5.625 17.4287 6.57129 18.375 7.73438 18.375C8.89746 18.375 9.84375 17.4287 9.84375 16.2656C9.84375 15.1025 8.89746 14.1562 7.73438 14.1562ZM7.73438 16.9688C7.34674 16.9688 7.03125 16.6533 7.03125 16.2656C7.03125 15.878 7.34674 15.5625 7.73438 15.5625C8.12201 15.5625 8.4375 15.878 8.4375 16.2656C8.4375 16.6533 8.12201 16.9688 7.73438 16.9688Z" fill="#BB261A"/>
</g>
<defs>
<clipPath id="clip0">
<rect width="24" height="24" fill="white"/>
</clipPath>
</defs>
</svg>
