<svg width="30" height="25" viewBox="0 0 30 25" fill="none" xmlns="http://www.w3.org/2000/svg">
<path d="M29.6678 0.243562C29.4489 0.0579382 29.1613 -0.0286862 28.8737 0.00843855C24.2969 0.627185 19.6264 0.936558 15.0058 0.936558C10.379 0.936558 5.71472 0.627185 1.13794 0.00843855C0.85033 -0.0286862 0.562718 0.0579382 0.343883 0.243562C0.125049 0.429186 0 0.707622 0 0.992246V20.7921C0 21.0768 0.125049 21.349 0.343883 21.5408C0.562718 21.7264 0.85033 21.8131 1.13794 21.7759C5.38334 21.1758 9.71002 20.854 13.9992 20.8107V21.9987C10.9543 22.0296 7.91557 22.1967 4.8894 22.4999C4.33918 22.5556 3.93903 23.0382 3.9953 23.5827C4.04532 24.0901 4.48299 24.4737 4.98944 24.4737C5.0207 24.4737 5.05821 24.4737 5.08948 24.4675C11.6608 23.8116 18.3321 23.8116 24.9034 24.4675C25.4536 24.5232 25.9413 24.1272 25.9976 23.5827C26.0539 23.0382 25.6537 22.5556 25.1035 22.4999C22.0836 22.1967 19.0386 22.0296 15.9937 21.9987V20.8107C20.2891 20.854 24.6096 21.1758 28.8549 21.7759C28.905 21.7821 28.9487 21.7883 28.9988 21.7883C29.2363 21.7883 29.4739 21.7017 29.6553 21.547C29.8741 21.3614 29.9991 21.0891 29.9991 20.7983V0.998433C30.0116 0.707622 29.8866 0.435374 29.6678 0.243562ZM28.0109 19.6598C23.7092 19.103 19.3388 18.8245 15.0058 18.8245C10.6729 18.8245 6.30245 19.103 2.00078 19.6598V2.11836C6.30245 2.65049 10.6729 2.91655 15.0058 2.91655C19.3388 2.91655 23.7092 2.65049 28.0109 2.11836V19.6598Z" fill="white"/>
</svg>
