<svg width="30" height="23" viewBox="0 0 30 23" fill="none" xmlns="http://www.w3.org/2000/svg">
<path d="M4.87724 10.1888C4.25186 10.8003 4.25186 11.7955 4.87724 12.413C5.50262 13.0244 6.5204 13.0244 7.15192 12.413C11.4806 8.18052 18.5253 8.18052 22.8539 12.413C23.1666 12.7187 23.5774 12.8746 23.9882 12.8746C24.399 12.8746 24.8098 12.7187 25.1225 12.413C25.7479 11.8015 25.7479 10.8063 25.1225 10.1888C19.5431 4.72742 10.4566 4.72742 4.87724 10.1888Z" fill="white"/>
<path d="M9.21806 14.433C8.59268 15.0445 8.59268 16.0396 9.21806 16.6571C9.84344 17.2686 10.8612 17.2686 11.4927 16.6571C13.4241 14.7627 16.5755 14.7627 18.5068 16.6571C18.8195 16.9629 19.2303 17.1187 19.6411 17.1187C20.0519 17.1187 20.4627 16.9629 20.7754 16.6571C21.4008 16.0456 21.4008 15.0505 20.7754 14.439C17.5933 11.3156 12.4063 11.3156 9.21806 14.433Z" fill="white"/>
<path d="M15.0001 22.1723C16.1819 22.1723 17.1399 21.2355 17.1399 20.08C17.1399 18.9245 16.1819 17.9878 15.0001 17.9878C13.8184 17.9878 12.8604 18.9245 12.8604 20.08C12.8604 21.2355 13.8184 22.1723 15.0001 22.1723Z" fill="white"/>
<path d="M29.531 5.87206C21.5175 -1.95735 8.48253 -1.95735 0.469037 5.87206C-0.156346 6.48355 -0.156346 7.47871 0.469037 8.09619C1.09442 8.70768 2.1122 8.70768 2.74372 8.09619C9.50031 1.48375 20.4997 1.48375 27.2624 8.09619C27.5751 8.40194 27.9859 8.55781 28.3967 8.55781C28.8075 8.55781 29.2183 8.40194 29.531 8.09619C30.1563 7.48471 30.1563 6.48954 29.531 5.87206Z" fill="white"/>
</svg>
