<svg width="28" height="28" viewBox="0 0 28 28" fill="none" xmlns="http://www.w3.org/2000/svg">
<path d="M14.0003 26.8333C14.6192 26.8333 15.2127 26.5875 15.6502 26.1499C16.0878 25.7123 16.3337 25.1188 16.3337 24.5H11.667C11.667 25.1188 11.9128 25.7123 12.3504 26.1499C12.788 26.5875 13.3815 26.8333 14.0003 26.8333Z" fill="white"/>
<path d="M24.4111 21.447C24.4994 21.2337 24.5225 20.9991 24.4774 20.7727C24.4324 20.5464 24.3212 20.3385 24.1579 20.1753L22.1664 18.1838V11.6668C22.1641 9.70465 21.4554 7.80892 20.17 6.32642C18.8846 4.84393 17.1084 3.87378 15.1664 3.59348V2.33348C15.1664 2.02406 15.0435 1.72731 14.8247 1.50852C14.6059 1.28973 14.3092 1.16681 13.9998 1.16681C13.6903 1.16681 13.3936 1.28973 13.1748 1.50852C12.956 1.72731 12.8331 2.02406 12.8331 2.33348V3.59348C10.8911 3.87378 9.11486 4.84393 7.82946 6.32642C6.54406 7.80892 5.83538 9.70465 5.83308 11.6668V18.1838L3.84158 20.1753C3.67847 20.3385 3.5674 20.5463 3.5224 20.7726C3.47741 20.9989 3.50051 21.2334 3.58879 21.4466C3.67708 21.6597 3.82657 21.8419 4.01838 21.9701C4.21019 22.0983 4.43571 22.1668 4.66642 22.1668H23.3331C23.5638 22.1669 23.7894 22.0985 23.9813 21.9704C24.1731 21.8423 24.3227 21.6601 24.4111 21.447ZM7.48275 19.8335L7.82458 19.4916C8.04339 19.2729 8.16635 18.9762 8.16642 18.6668V11.6668C8.16642 10.1197 8.781 8.63598 9.87496 7.54202C10.9689 6.44806 12.4527 5.83348 13.9998 5.83348C15.5468 5.83348 17.0306 6.44806 18.1245 7.54202C19.2185 8.63598 19.8331 10.1197 19.8331 11.6668V18.6668C19.8332 18.9762 19.9561 19.2729 20.1749 19.4916L20.5168 19.8335H7.48275Z" fill="white"/>
</svg>
