<svg width="16" height="18" viewBox="0 0 16 18" fill="none" xmlns="http://www.w3.org/2000/svg">
    <path d="M14.2222 17.7778H1.77778C0.795938 17.7778 0 16.9818 0 16V3.55556C0 2.57372 0.795938 1.77778 1.77778 1.77778H3.55556V0H5.33333V1.77778H10.6667V0H12.4444V1.77778H14.2222C15.2041 1.77778 16 2.57372 16 3.55556V16C16 16.9818 15.2041 17.7778 14.2222 17.7778ZM1.77778 7.11111V16H14.2222V7.11111H1.77778ZM1.77778 3.55556V5.33333H14.2222V3.55556H1.77778ZM12.4444 14.2222H10.6667V12.4444H12.4444V14.2222ZM8.88889 14.2222H7.11111V12.4444H8.88889V14.2222ZM5.33333 14.2222H3.55556V12.4444H5.33333V14.2222ZM12.4444 10.6667H10.6667V8.88889H12.4444V10.6667ZM8.88889 10.6667H7.11111V8.88889H8.88889V10.6667ZM5.33333 10.6667H3.55556V8.88889H5.33333V10.6667Z" fill="#BB261A"/>
</svg>
