<svg width="24" height="24" viewBox="0 0 24 24" fill="none" xmlns="http://www.w3.org/2000/svg">
<g clip-path="url(#clip0)">
<path d="M23.25 9.98334H22.2508V7.93809L22.609 7.84209C23.0091 7.73489 23.2466 7.32366 23.1393 6.92353C23.0321 6.52345 22.6214 6.28603 22.2207 6.39323L17.6856 7.60842C17.2855 7.71563 17.048 8.12686 17.1553 8.52698C17.2451 8.86205 17.5481 9.08306 17.8792 9.08306C17.9336 9.08306 17.9887 9.07669 18.0437 9.06431V9.98334H15.5274V9.36328C15.5274 8.21306 14.5916 7.27734 13.4415 7.27734H12.8555V3.5625C12.8555 1.59811 11.2573 0 9.29297 0H3.5625C1.59816 0 0 1.59811 0 3.5625V20.4375C0 22.4018 1.59816 24 3.5625 24H9.29297C11.2573 24 12.8555 22.4018 12.8555 20.4375V16.7227H13.4415C14.5916 16.7227 15.5274 15.7869 15.5274 14.6367V14.0167H23.25C23.6642 14.0167 24 13.6809 24 13.2667V10.7333C24 10.3191 23.6642 9.98334 23.25 9.98334ZM8.73623 18.239C7.87378 18.3945 7.07062 18.8147 6.42773 19.4442C5.78484 18.8147 4.98169 18.3945 4.11923 18.239V15.8934C4.78706 16.0835 5.38758 16.5226 5.80392 17.1464C5.94305 17.3549 6.17709 17.48 6.42773 17.48C6.67838 17.48 6.91242 17.3549 7.05155 17.1464C7.46794 16.5226 8.06841 16.0835 8.73623 15.8934V18.239ZM8.73623 14.3551C7.87378 14.5106 7.07062 14.9308 6.42773 15.5603C5.78484 14.9308 4.98169 14.5106 4.11923 14.3551V12.0095C4.78706 12.1996 5.38758 12.6387 5.80392 13.2625C5.94305 13.4709 6.17709 13.5961 6.42773 13.5961C6.67838 13.5961 6.91242 13.4709 7.05155 13.2625C7.46794 12.6387 8.06841 12.1996 8.73623 12.0095V14.3551ZM8.73623 10.4712C7.87378 10.6267 7.07062 11.0468 6.42773 11.6764C5.78484 11.0468 4.98169 10.6267 4.11923 10.4712V8.12564C4.78706 8.31572 5.38758 8.75484 5.80392 9.37861C5.94305 9.58706 6.17709 9.71222 6.42773 9.71222C6.67838 9.71222 6.91242 9.58706 7.05155 9.37861C7.46794 8.75484 8.06841 8.31572 8.73623 8.12564V10.4712ZM8.73623 6.5873C7.87378 6.74283 7.07062 7.16297 6.42773 7.7925C5.78484 7.16297 4.98169 6.74283 4.11923 6.5873V4.24167C4.78706 4.43175 5.38758 4.87087 5.80392 5.49464C5.94305 5.70309 6.17709 5.82825 6.42773 5.82825C6.67838 5.82825 6.91242 5.70309 7.05155 5.49464C7.46794 4.87087 8.06841 4.43175 8.73623 4.24167V6.5873ZM6.42773 3.90853C5.78484 3.279 4.98169 2.85886 4.11923 2.70333V1.5H8.73623V2.70333C7.87378 2.85886 7.07062 3.279 6.42773 3.90853ZM4.11923 19.7774C4.78706 19.9674 5.38758 20.4066 5.80392 21.0303C5.94305 21.2388 6.17709 21.3639 6.42773 21.3639C6.67838 21.3639 6.91242 21.2388 7.05155 21.0303C7.46794 20.4066 8.06841 19.9674 8.73623 19.7774V22.5H4.11923V19.7774ZM1.5 20.4375V3.5625C1.5 2.76502 1.95525 2.07234 2.61923 1.72927V22.2707C1.95525 21.9277 1.5 21.235 1.5 20.4375ZM11.3555 20.4375C11.3555 21.235 10.9002 21.9277 10.2362 22.2707V1.72927C10.9002 2.07234 11.3555 2.76502 11.3555 3.5625V20.4375ZM19.5437 8.66344L20.7508 8.34V9.98334H19.5437V8.66344ZM14.0274 14.6367C14.0274 14.9598 13.7646 15.2227 13.4415 15.2227H12.8555V8.77734H13.4415C13.7646 8.77734 14.0274 9.04022 14.0274 9.36328V14.6367ZM22.5 12.5167H15.5274V11.4833H22.5V12.5167ZM17.1553 3.73134C17.0481 3.33122 17.2855 2.91998 17.6856 2.81278L22.2207 1.59759C22.6214 1.49044 23.0321 1.72786 23.1393 2.12789C23.2465 2.52802 23.0091 2.93925 22.609 3.04645L18.0739 4.26164C18.0088 4.27908 17.9435 4.28737 17.8793 4.28737C17.548 4.28742 17.2451 4.06641 17.1553 3.73134ZM17.1553 6.12914C17.0481 5.72902 17.2855 5.31778 17.6856 5.21058L22.2207 3.99539C22.6214 3.88814 23.0321 4.12561 23.1393 4.52569C23.2465 4.92581 23.0091 5.33705 22.609 5.44425L18.0739 6.65944C18.0088 6.67687 17.9435 6.68517 17.8793 6.68517C17.548 6.68522 17.2451 6.46425 17.1553 6.12914Z" fill="#BB261A"/>
</g>
<defs>
<clipPath id="clip0">
<rect width="24" height="24" fill="white"/>
</clipPath>
</defs>
</svg>
