<svg width="21" height="21" viewBox="0 0 21 21" fill="none" xmlns="http://www.w3.org/2000/svg">
<path d="M3.52955 3.65125C5.13273 1.331 7.67353 0 10.5 0C13.3264 0 15.8672 1.331 17.4704 3.65125C19.0657 5.95978 19.434 8.88243 18.4577 11.4646C18.1965 12.1697 17.7814 12.8548 17.2268 13.4968L11.059 20.7415C10.9195 20.9055 10.7151 21 10.5 21C10.2848 21 10.0804 20.9055 9.94095 20.7415L3.77483 13.4987C3.21775 12.8531 2.80317 12.1687 2.54419 11.4692C1.56589 8.88243 1.93425 5.95978 3.52955 3.65125ZM3.9192 10.955C4.11891 11.4947 4.44494 12.0282 4.8877 12.5415C4.88893 12.5427 4.89017 12.5439 4.89115 12.5454L10.5 19.1333L16.1122 12.5413C16.5547 12.0285 16.8808 11.495 17.0824 10.9501C17.8899 8.81463 17.5834 6.39815 16.2625 4.48637C14.9374 2.56848 12.8369 1.46852 10.5 1.46852C8.16305 1.46852 6.0628 2.56844 4.73767 4.48637C3.41647 6.39815 3.1098 8.81463 3.9192 10.955Z" fill="white"/>
<path d="M10.4994 4.35645C12.7666 4.35645 14.6113 6.20092 14.6113 8.46834C14.6113 10.7358 12.7669 12.5802 10.4994 12.5802C8.232 12.5802 6.38753 10.7358 6.38753 8.46834C6.38753 6.20116 8.23225 4.35645 10.4994 4.35645ZM10.4994 11.1117C11.957 11.1117 13.1428 9.92583 13.1428 8.4683C13.1428 7.01077 11.957 5.82493 10.4994 5.82493C9.0419 5.82493 7.85605 7.01077 7.85605 8.4683C7.85605 9.92583 9.0419 11.1117 10.4994 11.1117Z" fill="white"/>
</svg>
