<svg width="20" height="20" viewBox="0 0 20 20" fill="none" xmlns="http://www.w3.org/2000/svg">
<path d="M9.99967 19.1666C4.93706 19.1666 0.833008 15.0625 0.833008 9.99992C0.833008 4.93731 4.93706 0.833252 9.99967 0.833252C15.0623 0.833252 19.1663 4.93731 19.1663 9.99992C19.1608 15.0602 15.06 19.161 9.99967 19.1666ZM2.66634 10.1576C2.70971 14.1921 6.00402 17.4337 10.0387 17.4121C14.0733 17.3903 17.3326 14.1135 17.3326 10.0787C17.3326 6.04405 14.0733 2.76721 10.0387 2.74542C6.00402 2.72384 2.70971 5.96545 2.66634 9.99992V10.1576ZM10.9163 14.5833H9.08301V10.9166H5.41634V9.08325H9.08301V5.41659H10.9163V9.08325H14.583V10.9166H10.9163V14.5833Z" fill="white"/>
</svg>
