<?xml version="1.0" encoding="UTF-8" standalone="no"?>
<svg
   xmlns:dc="http://purl.org/dc/elements/1.1/"
   xmlns:cc="http://creativecommons.org/ns#"
   xmlns:rdf="http://www.w3.org/1999/02/22-rdf-syntax-ns#"
   xmlns:svg="http://www.w3.org/2000/svg"
   xmlns="http://www.w3.org/2000/svg"
   xmlns:sodipodi="http://sodipodi.sourceforge.net/DTD/sodipodi-0.dtd"
   xmlns:inkscape="http://www.inkscape.org/namespaces/inkscape"
   width="25"
   height="25"
   viewBox="0 0 25 25"
   fill="none"
   version="1.1"
   id="svg25"
   sodipodi:docname="akkp-icon-red.svg"
   inkscape:version="1.0.2-2 (e86c870879, 2021-01-15)">
  <metadata
     id="metadata29">
    <rdf:RDF>
      <cc:Work
         rdf:about="">
        <dc:format>image/svg+xml</dc:format>
        <dc:type
           rdf:resource="http://purl.org/dc/dcmitype/StillImage" />
        <dc:title></dc:title>
      </cc:Work>
    </rdf:RDF>
  </metadata>
  <sodipodi:namedview
     pagecolor="#ffffff"
     bordercolor="#666666"
     borderopacity="1"
     objecttolerance="10"
     gridtolerance="10"
     guidetolerance="10"
     inkscape:pageopacity="0"
     inkscape:pageshadow="2"
     inkscape:window-width="1680"
     inkscape:window-height="987"
     id="namedview27"
     showgrid="false"
     inkscape:zoom="29.4"
     inkscape:cx="12.5"
     inkscape:cy="12.5"
     inkscape:window-x="-8"
     inkscape:window-y="-8"
     inkscape:window-maximized="1"
     inkscape:current-layer="g18" />
  <g
     clip-path="url(#clip0)"
     id="g18">
    <path
       d="M25 8.26612V1.81451H16.129V2.60481H14.5323C14.3194 2.60481 14.1084 2.55008 13.9237 2.44711L11.8331 1.26893C11.5274 1.09843 11.1807 1.00806 10.8247 1.00806L6.73789 1.07264C6.49394 1.07264 6.25571 1.14686 6.04524 1.28902L2.31658 3.86056C2.20357 3.93794 2.10493 4.03422 2.0242 4.14605L0.231146 6.61581C0.082299 6.819 0 7.07298 0 7.33071V7.44352C0 8.11944 0.555223 8.66935 1.23783 8.66935C1.59755 8.66935 1.93796 8.5142 2.17088 8.24466L4.2319 5.87748C4.27266 5.83062 4.32818 5.79026 4.38272 5.76683L4.65324 5.65283C4.25238 6.28267 4.03226 7.01805 4.03226 7.77016C4.03226 8.14523 4.08384 8.51046 4.18465 8.85285L5.28348 12.7016H1.20968C0.542819 12.7016 0 13.2444 0 13.9113V22.7822C0 23.4491 0.542819 23.9919 1.20968 23.9919H18.1452C18.812 23.9919 19.3548 23.4491 19.3548 22.7822V13.9113C19.3548 13.2444 18.812 12.7016 18.1452 12.7016H10.8456L11.9432 8.856C12.0314 8.55732 12.0741 8.24151 12.0863 7.9198L14.1121 7.47089C14.1487 7.46321 14.1763 7.45967 14.2017 7.45967H16.129V8.26612H25ZM19.3548 7.45967H18.5484V2.62096H19.3548V7.45967ZM24.1935 3.42741H22.9839V4.23386H24.1935V7.45967H20.1613V4.23386H22.1774V3.42741H20.1613V2.62096H24.1935V3.42741ZM16.9355 2.62096H17.7419V7.45967H16.9355V2.62096ZM4.83871 7.77016C4.83871 7.03419 5.0858 6.34469 5.55243 5.77746C6.00881 5.22618 6.64358 4.84441 7.33918 4.70167L7.3319 4.66702L9.70971 4.60933C9.82016 4.60933 9.92254 4.65048 9.99874 4.72667L10.5912 5.31163L10.4715 5.38349C10.4039 5.42346 10.3334 5.44354 10.2622 5.44354H7.66129C7.12733 5.44354 6.62133 5.65244 6.23307 6.03538C5.85406 6.41971 5.64516 6.92571 5.64516 7.45967C5.64516 7.90444 6.00684 8.26612 6.45161 8.26612H6.4778L6.82747 13.5081H6.35317L4.9596 8.6278C4.87947 8.35649 4.83871 8.06766 4.83871 7.77016ZM9.67742 16.7339H15.5242C15.8577 16.7339 16.129 17.0052 16.129 17.3387C16.129 17.4992 16.0648 17.6553 15.9528 17.7669C15.8408 17.8794 15.6843 17.9435 15.5242 17.9435H9.67742V16.7339ZM8.87097 17.9435H7.25806V14.3145H8.87097V17.9435ZM6.45161 17.9435H3.83065C3.49712 17.9435 3.22581 17.6722 3.22581 17.3387C3.22581 17.1782 3.28999 17.0221 3.40202 16.9105C3.51405 16.798 3.67058 16.7339 3.83065 16.7339H6.45161V17.9435ZM7.6351 13.5081L7.28543 8.26612H8.84321L8.49353 13.5081H7.6351ZM18.1452 13.5081C18.3673 13.5081 18.5484 13.6888 18.5484 13.9113V22.7822C18.5484 23.0047 18.3673 23.1855 18.1452 23.1855H1.20968C0.987588 23.1855 0.806452 23.0047 0.806452 22.7822V13.9113C0.806452 13.6888 0.987588 13.5081 1.20968 13.5081H5.51364L5.744 14.3145H6.45161V15.9274H3.83065C3.45242 15.9274 3.09803 16.0737 2.83183 16.3395C2.56978 16.6016 2.41935 16.9654 2.41935 17.3387C2.41935 18.117 3.05235 18.75 3.83065 18.75H15.5242C15.9024 18.75 16.2568 18.6037 16.523 18.3379C16.7851 18.0758 16.9355 17.712 16.9355 17.3387C16.9355 16.5604 16.3025 15.9274 15.5242 15.9274H9.67742V14.3145H10.385L10.6154 13.5081H18.1452ZM11.169 8.63135L9.77626 13.5081H9.30196L9.65163 8.26612H10.3951C10.4778 8.26612 10.5597 8.25687 10.6556 8.23659L11.2677 8.10113C11.2484 8.28187 11.2194 8.46005 11.169 8.63135ZM14.2017 6.65322C14.119 6.65322 14.0371 6.66247 13.9408 6.68314L10.4847 7.44845C10.448 7.45612 10.4205 7.45967 10.3951 7.45967H6.45161C6.45161 7.13914 6.57782 6.83435 6.80325 6.60557C7.03598 6.3762 7.34076 6.24999 7.66129 6.24999H10.2622C10.4774 6.24999 10.692 6.18994 10.8839 6.07614L12.7077 4.98263L12.2923 4.29155L11.3057 4.883L10.5674 4.15393C10.3407 3.92751 10.0363 3.80248 9.70046 3.80248H9.70006L7.05645 3.86686C6.90032 3.86686 6.7432 3.89837 6.58097 3.96334L4.06652 5.02456C3.89719 5.09721 3.74362 5.20924 3.62293 5.34805L1.56171 7.71621C1.48099 7.80934 1.36286 7.86289 1.23783 7.86289C0.996054 7.86289 0.806452 7.67861 0.806452 7.44352V7.33071C0.806452 7.24349 0.833031 7.15922 0.882647 7.09149L2.67787 4.61897C2.70445 4.58176 2.73634 4.55085 2.77336 4.52545L6.50044 1.95489C6.57388 1.90527 6.65598 1.87909 6.74438 1.87909L10.8306 1.81451C11.0436 1.81451 11.2545 1.86944 11.4392 1.97222L13.5299 3.15039C13.8359 3.32089 14.1826 3.41087 14.5327 3.41087H16.129V6.65322H14.2017Z"
       fill="white"
       id="path2"
       style="fill:#bb261a;fill-opacity:1" />
    <path
       d="M4.83858 19.5564C4.17173 19.5564 3.62891 20.0992 3.62891 20.7661C3.62891 21.4329 4.17173 21.9757 4.83858 21.9757C5.50544 21.9757 6.04826 21.4329 6.04826 20.7661C6.04826 20.0992 5.50544 19.5564 4.83858 19.5564ZM4.83858 21.1693C4.61649 21.1693 4.43536 20.9886 4.43536 20.7661C4.43536 20.5436 4.61649 20.3628 4.83858 20.3628C5.06067 20.3628 5.24181 20.5436 5.24181 20.7661C5.24181 20.9886 5.06067 21.1693 4.83858 21.1693Z"
       fill="white"
       id="path4" />
    <path
       d="M8.06466 19.5564C7.3978 19.5564 6.85498 20.0992 6.85498 20.7661C6.85498 21.4329 7.3978 21.9757 8.06466 21.9757C8.73152 21.9757 9.27434 21.4329 9.27434 20.7661C9.27434 20.0992 8.73152 19.5564 8.06466 19.5564ZM8.06466 21.1693C7.84257 21.1693 7.66143 20.9886 7.66143 20.7661C7.66143 20.5436 7.84257 20.3628 8.06466 20.3628C8.28675 20.3628 8.46788 20.5436 8.46788 20.7661C8.46788 20.9886 8.28675 21.1693 8.06466 21.1693Z"
       fill="white"
       id="path6" />
    <path
       d="M11.2902 19.5564C10.6234 19.5564 10.0806 20.0992 10.0806 20.7661C10.0806 21.4329 10.6234 21.9757 11.2902 21.9757C11.9571 21.9757 12.4999 21.4329 12.4999 20.7661C12.4999 20.0992 11.9571 19.5564 11.2902 19.5564ZM11.2902 21.1693C11.0682 21.1693 10.887 20.9886 10.887 20.7661C10.887 20.5436 11.0682 20.3628 11.2902 20.3628C11.5123 20.3628 11.6935 20.5436 11.6935 20.7661C11.6935 20.9886 11.5123 21.1693 11.2902 21.1693Z"
       fill="white"
       id="path8" />
    <path
       d="M14.5161 19.5564C13.8492 19.5564 13.3064 20.0992 13.3064 20.7661C13.3064 21.4329 13.8492 21.9757 14.5161 21.9757C15.1829 21.9757 15.7258 21.4329 15.7258 20.7661C15.7258 20.0992 15.1829 19.5564 14.5161 19.5564ZM14.5161 21.1693C14.294 21.1693 14.1128 20.9886 14.1128 20.7661C14.1128 20.5436 14.294 20.3628 14.5161 20.3628C14.7382 20.3628 14.9193 20.5436 14.9193 20.7661C14.9193 20.9886 14.7382 21.1693 14.5161 21.1693Z"
       fill="white"
       id="path10" />
    <path
       d="M12.9033 14.3145H13.7098V15.1209H12.9033V14.3145Z"
       fill="white"
       id="path12" />
    <path
       d="M14.5161 14.3145H15.3226V15.1209H14.5161V14.3145Z"
       fill="white"
       id="path14" />
    <path
       d="M16.1289 14.3145H16.9354V15.1209H16.1289V14.3145Z"
       fill="white"
       id="path16" />
  </g>
  <defs
     id="defs23">
    <clipPath
       id="clip0">
      <rect
         width="25"
         height="25"
         fill="white"
         id="rect20" />
    </clipPath>
  </defs>
</svg>
