<?xml version="1.0" encoding="UTF-8" standalone="no"?>
<svg
   xmlns:dc="http://purl.org/dc/elements/1.1/"
   xmlns:cc="http://creativecommons.org/ns#"
   xmlns:rdf="http://www.w3.org/1999/02/22-rdf-syntax-ns#"
   xmlns:svg="http://www.w3.org/2000/svg"
   xmlns="http://www.w3.org/2000/svg"
   xmlns:sodipodi="http://sodipodi.sourceforge.net/DTD/sodipodi-0.dtd"
   xmlns:inkscape="http://www.inkscape.org/namespaces/inkscape"
   width="23"
   height="23"
   viewBox="0 0 23 23"
   fill="none"
   version="1.1"
   id="svg14"
   sodipodi:docname="analicis-icon.svg"
   inkscape:version="1.0.2-2 (e86c870879, 2021-01-15)">
  <metadata
     id="metadata20">
    <rdf:RDF>
      <cc:Work
         rdf:about="">
        <dc:format>image/svg+xml</dc:format>
        <dc:type
           rdf:resource="http://purl.org/dc/dcmitype/StillImage" />
        <dc:title></dc:title>
      </cc:Work>
    </rdf:RDF>
  </metadata>
  <defs
     id="defs18" />
  <sodipodi:namedview
     pagecolor="#ffffff"
     bordercolor="#666666"
     borderopacity="1"
     objecttolerance="10"
     gridtolerance="10"
     guidetolerance="10"
     inkscape:pageopacity="0"
     inkscape:pageshadow="2"
     inkscape:window-width="1680"
     inkscape:window-height="987"
     id="namedview16"
     showgrid="false"
     inkscape:zoom="31.956522"
     inkscape:cx="11.5"
     inkscape:cy="11.5"
     inkscape:window-x="-8"
     inkscape:window-y="-8"
     inkscape:window-maximized="1"
     inkscape:current-layer="svg14" />
  <path
     d="M20.1249 14.0836V1.91668C20.1249 1.265 19.6266 0.766682 18.9749 0.766682H13.9916C13.9916 0.345 13.6466 0 13.2249 0H7.85825C7.43657 0 7.09157 0.345 7.09157 0.766682H2.10825C1.45657 0.766682 0.958252 1.265 0.958252 1.91668V21.85C0.958252 22.5017 1.45657 23 2.10825 23H17.0583C19.8183 23 22.0416 20.7767 22.0416 18.0167C22.0416 16.415 21.2928 14.9942 20.1249 14.0836ZM18.9749 1.53332C19.2049 1.53332 19.3583 1.68664 19.3583 1.91664V13.5917C19.114 13.4649 18.8577 13.3578 18.5916 13.2723V3.06668C18.5916 2.645 18.2466 2.3 17.8249 2.3H13.9916V1.53332H18.9749ZM12.0776 18.1727C12.0778 18.1802 12.0782 18.1878 12.0784 18.1954C12.1106 19.1167 12.3906 19.9731 12.8543 20.7H3.25825V3.06668H7.09157C7.09157 3.48836 7.43657 3.83336 7.85825 3.83336H13.2249C13.6466 3.83336 13.9916 3.48836 13.9916 3.06668H17.8249V13.0916C17.7714 13.0834 17.7176 13.0763 17.6635 13.0697C17.6597 13.0693 17.6559 13.0689 17.6521 13.0684C17.6098 13.0635 17.5674 13.059 17.5249 13.0551C17.5141 13.0541 17.5034 13.0532 17.4927 13.0523C17.4566 13.0492 17.4205 13.0465 17.3842 13.0442C17.371 13.0433 17.3577 13.0424 17.3445 13.0417C17.3094 13.0397 17.2741 13.0382 17.2388 13.037C17.2259 13.0365 17.2131 13.0359 17.2002 13.0355C17.153 13.0342 17.1058 13.0334 17.0583 13.0334C14.2983 13.0334 12.075 15.2567 12.075 18.0167C12.0749 18.0689 12.076 18.1208 12.0776 18.1727ZM7.85825 0.766682H13.2249V1.15V2.68332V3.06664H7.85825V2.68332V1.15V0.766682ZM2.10825 22.2333C1.87825 22.2333 1.72493 22.08 1.72493 21.85V1.91668C1.72493 1.68668 1.87825 1.53336 2.10825 1.53336H7.09157V2.3H3.25825C2.83657 2.3 2.49157 2.645 2.49157 3.06668V20.7C2.49157 21.1217 2.83657 21.4667 3.25825 21.4667H13.4567C13.7365 21.7587 14.0516 22.0164 14.3953 22.2334H2.10825V22.2333ZM17.0583 22.2333C15.8401 22.2333 14.7469 21.7233 13.9789 20.9043C13.9635 20.8727 13.9426 20.8427 13.9149 20.815C13.2686 20.0968 12.8913 19.1767 12.8462 18.2125C12.8462 18.2101 12.8461 18.2077 12.846 18.2054C12.8431 18.1426 12.8416 18.0797 12.8416 18.0166C12.8416 15.6783 14.7199 13.8 17.0583 13.8C17.1077 13.8 17.1569 13.8011 17.206 13.8028C17.2104 13.8029 17.2149 13.8031 17.2194 13.8033C17.2305 13.8037 17.2416 13.8043 17.2527 13.8048C17.2853 13.8063 17.3179 13.8082 17.3504 13.8104C17.38 13.8125 17.4097 13.8147 17.4393 13.8176C17.4434 13.8179 17.4475 13.8184 17.4516 13.8188C17.6655 13.8403 17.8794 13.882 18.0933 13.9533C18.138 13.9682 18.1827 13.9712 18.2274 13.9652C18.6301 14.0817 19.0199 14.2596 19.3927 14.4996C20.5292 15.253 21.2749 16.5434 21.2749 18.0166C21.2749 20.355 19.3966 22.2333 17.0583 22.2333Z"
     fill="white"
     id="path2"
     style="fill:#bb261a;fill-opacity:1" />
  <path
     d="M19.588 15.8317C19.3963 15.6783 19.1663 15.7167 19.0513 15.9083L16.9047 18.975L15.4097 17.7483C15.2564 17.595 14.988 17.6333 14.873 17.7866C14.7197 17.9399 14.758 18.2083 14.9113 18.3233L16.7513 19.8183C16.7896 19.8566 16.9046 19.895 16.9813 19.895C16.9813 19.895 17.0196 19.895 17.0196 19.9333C17.1346 19.9333 17.2113 19.8566 17.288 19.78L19.6646 16.3683C19.818 16.1767 19.7797 15.9467 19.588 15.8317Z"
     fill="white"
     id="path4"
     style="fill:#bb261a;fill-opacity:1" />
  <path
     d="M13.6082 12.6501C14.3193 12.6501 14.9214 12.1595 15.0927 11.5001H15.6782C16.2532 11.5001 16.6749 11.0784 16.7132 10.5034V9.00838C16.7132 8.43338 16.2532 8.0117 15.7165 8.0117H14.9L13.4165 5.9417C13.1865 5.5967 12.8032 5.40502 12.3815 5.40502H10.7228C10.6703 5.38031 10.6094 5.3667 10.5415 5.3667C10.4737 5.3667 10.4128 5.38036 10.3603 5.40502H8.70152C8.27984 5.40502 7.89652 5.5967 7.66652 5.9417L6.18302 8.0117H5.40488C4.82988 8.0117 4.4082 8.4717 4.4082 9.00838V10.5034C4.4082 11.0784 4.82988 11.5001 5.40488 11.5001H5.9904C6.16173 12.1595 6.76377 12.6501 7.47488 12.6501C8.18595 12.6501 8.78804 12.1595 8.95937 11.5001H12.1238C12.2951 12.1595 12.8971 12.6501 13.6082 12.6501ZM13.6082 11.8834C13.1865 11.8834 12.8415 11.5384 12.8415 11.1167C12.8415 10.695 13.1865 10.35 13.6082 10.35C14.0299 10.35 14.3749 10.6951 14.3749 11.1167C14.3749 11.5384 14.0299 11.8834 13.6082 11.8834ZM12.7649 6.32506L13.9643 8.01174H10.9249V6.13343H12.3432C12.5349 6.13338 12.6882 6.21006 12.7649 6.32506ZM8.24157 6.32506C8.35657 6.21006 8.50988 6.13338 8.66325 6.13338H10.1582V8.0117H7.07966L8.24157 6.32506ZM7.47488 11.8834C7.0532 11.8834 6.7082 11.5384 6.7082 11.1167C6.7082 10.695 7.0532 10.35 7.47488 10.35C7.89657 10.35 8.24157 10.695 8.24157 11.1167C8.24157 11.5384 7.89657 11.8834 7.47488 11.8834ZM7.5132 9.58338C7.5062 9.58338 7.49932 9.58374 7.49236 9.58383C7.48652 9.58379 7.48077 9.58338 7.47488 9.58338C6.76377 9.58338 6.16173 10.074 5.9904 10.7334H5.40488C5.28988 10.7334 5.17488 10.6184 5.17488 10.5034V9.00838C5.17488 8.89338 5.28988 8.77838 5.40488 8.77838H6.15247C6.20333 8.80255 6.26051 8.8167 6.32488 8.8167H14.7582C14.8226 8.8167 14.8798 8.80255 14.9306 8.77838H15.7165C15.8315 8.77838 15.9465 8.89338 15.9465 9.00838V10.5034C15.9465 10.6184 15.8315 10.7334 15.7165 10.7334H15.1032C14.9115 10.0817 14.4132 9.58338 13.6849 9.58338C13.6709 9.58338 13.657 9.58392 13.6432 9.58428C13.6315 9.58401 13.6199 9.58338 13.6082 9.58338C12.8971 9.58338 12.295 10.074 12.1237 10.7334H9.0082C8.81657 10.0817 8.24157 9.58338 7.5132 9.58338Z"
     fill="white"
     id="path6"
     style="fill:#bb261a;fill-opacity:1" />
  <path
     d="M10.5415 14.5669H4.79152C4.56152 14.5669 4.4082 14.7202 4.4082 14.9502C4.4082 15.1802 4.56152 15.3335 4.79152 15.3335H10.5415C10.7715 15.3335 10.9248 15.1802 10.9248 14.9502C10.9248 14.7202 10.7715 14.5669 10.5415 14.5669Z"
     fill="white"
     id="path8"
     style="fill:#bb261a;fill-opacity:1" />
  <path
     d="M10.5415 16.4832H4.79152C4.56152 16.4832 4.4082 16.6365 4.4082 16.8665C4.4082 17.0965 4.56152 17.2498 4.79152 17.2498H10.5415C10.7715 17.2498 10.9248 17.0965 10.9248 16.8665C10.9248 16.6365 10.7715 16.4832 10.5415 16.4832Z"
     fill="white"
     id="path10"
     style="fill:#bb261a;fill-opacity:1" />
  <path
     d="M10.5415 18.3999H4.79152C4.56152 18.3999 4.4082 18.5532 4.4082 18.7832C4.4082 19.0132 4.56152 19.1665 4.79152 19.1665H10.5415C10.7715 19.1665 10.9248 19.0132 10.9248 18.7832C10.9248 18.5532 10.7715 18.3999 10.5415 18.3999Z"
     fill="white"
     id="path12"
     style="fill:#bb261a;fill-opacity:1" />
</svg>
