<?xml version="1.0" encoding="UTF-8" standalone="no"?>
<svg
   xmlns:dc="http://purl.org/dc/elements/1.1/"
   xmlns:cc="http://creativecommons.org/ns#"
   xmlns:rdf="http://www.w3.org/1999/02/22-rdf-syntax-ns#"
   xmlns:svg="http://www.w3.org/2000/svg"
   xmlns="http://www.w3.org/2000/svg"
   xmlns:sodipodi="http://sodipodi.sourceforge.net/DTD/sodipodi-0.dtd"
   xmlns:inkscape="http://www.inkscape.org/namespaces/inkscape"
   version="1.1"
   id="Слой_1"
   x="0px"
   y="0px"
   viewBox="0 0 22 23"
   style="enable-background:new 0 0 22 23;"
   xml:space="preserve"
   sodipodi:docname="spray.svg"
   inkscape:version="1.0.2-2 (e86c870879, 2021-01-15)"><metadata
   id="metadata35"><rdf:RDF><cc:Work
       rdf:about=""><dc:format>image/svg+xml</dc:format><dc:type
         rdf:resource="http://purl.org/dc/dcmitype/StillImage" /><dc:title></dc:title></cc:Work></rdf:RDF></metadata><defs
   id="defs33" /><sodipodi:namedview
   pagecolor="#ffffff"
   bordercolor="#666666"
   borderopacity="1"
   objecttolerance="10"
   gridtolerance="10"
   guidetolerance="10"
   inkscape:pageopacity="0"
   inkscape:pageshadow="2"
   inkscape:window-width="1680"
   inkscape:window-height="987"
   id="namedview31"
   showgrid="false"
   inkscape:zoom="22.596673"
   inkscape:cx="14.632398"
   inkscape:cy="12.15994"
   inkscape:window-x="-8"
   inkscape:window-y="-8"
   inkscape:window-maximized="1"
   inkscape:current-layer="g28" />
<style
   type="text/css"
   id="style2">
	.st0{fill:#FFFFFF;}
</style>
<g
   id="g28">
	<path
   class="st0"
   d="M13.9,17.2H0.7V13c0-0.6,0.5-1.1,1.1-1.1h6.2v-0.8H2.8l2.4-4.9c0.1-0.3,0.4-0.4,0.7-0.4h7.8V5H5.8   C5.2,5,4.7,5.3,4.5,5.8L2,11.1H1.8C0.8,11.1,0,12,0,13v8.8C0,22.5,0.5,23,1.1,23H4c0.6,0,1.1-0.5,1.1-1.1v-2.3h8.8v-0.8H1.8   c-0.1,0-0.1,0-0.2,0c0,0,0,0-0.1,0c0,0-0.1,0-0.1,0c0,0,0,0-0.1,0c0,0-0.1,0-0.1-0.1c0,0,0,0,0,0c-0.1,0-0.1-0.1-0.1-0.1   c0,0,0,0,0,0c0,0-0.1-0.1-0.1-0.1c0,0,0,0,0-0.1c0,0,0-0.1-0.1-0.1c0,0,0,0,0-0.1c0,0,0,0,0,0h13.1V17.2z M3.7,19.5h0.7v2.3   c0,0.2-0.2,0.4-0.4,0.4H3.7V19.5z M2.2,19.5h0.7v2.7H2.2V19.5z M0.9,19.2c0.1,0,0.1,0.1,0.2,0.1c0,0,0.1,0,0.1,0   c0.1,0,0.1,0.1,0.2,0.1c0,0,0,0,0.1,0v2.7H1.1c-0.2,0-0.4-0.2-0.4-0.4v-2.7C0.7,19.2,0.8,19.2,0.9,19.2C0.8,19.2,0.8,19.2,0.9,19.2   z"
   id="path4"
   style="fill:#bb261a;fill-opacity:1" />
	<path
   class="st0"
   d="M7.7,13.4h6.2v-0.8H7.7c-0.6,0-1.1,0.5-1.1,1.2v1.5c0,0.6,0.5,1.2,1.1,1.2h6.2v-0.8H7.7   c-0.2,0-0.4-0.2-0.4-0.4v-0.4h6.6v-0.8H7.3v-0.4C7.3,13.6,7.5,13.4,7.7,13.4z"
   id="path6"
   style="fill:#bb261a;fill-opacity:1" />
	<path
   class="st0"
   d="M4.8,12.6H2.6c-0.6,0-1.1,0.5-1.1,1.2v1.5c0,0.6,0.5,1.2,1.1,1.2h2.2c0.6,0,1.1-0.5,1.1-1.2v-1.5   C5.9,13.2,5.4,12.6,4.8,12.6z M5.1,15.3c0,0.2-0.2,0.4-0.4,0.4H2.6c-0.2,0-0.4-0.2-0.4-0.4v-1.5c0-0.2,0.2-0.4,0.4-0.4h2.2   c0.2,0,0.4,0.2,0.4,0.4V15.3z"
   id="path8"
   style="fill:#bb261a;fill-opacity:1" />
	<path
   class="st0"
   d="M22,10.7V9.6c0-0.2-0.2-0.4-0.4-0.4h-1.6l-0.3-0.9c0-0.2-0.2-0.3-0.3-0.3h-1.1V7.4c1.1-0.5,1.8-1.6,1.8-2.8   V0.4C20.2,0.2,20,0,19.8,0h-5.1c-0.2,0-0.4,0.2-0.4,0.4v4.2c0,1.2,0.7,2.4,1.8,2.8V8h-2.2V7.7h-0.7v0.5l-1.3,0.7   c-0.1,0.1-0.2,0.2-0.2,0.3V10c0,0.1,0.1,0.3,0.2,0.3l1.3,0.7v0.5h0.7v-0.4H16l-0.4,1.5C15.5,12.8,15.3,13,15,13v0.8   c0.6,0,1.1-0.4,1.3-1l0-0.1h1.2l0.7,3.5h-1v0.8h1.2l0.3,1.6c0,0.2,0.2,0.3,0.4,0.3h0.7v0.8c0,0.2-0.2,0.4-0.4,0.4h-3.3   c-0.8,0-1.5,0.7-1.5,1.5c0,0.8,0.7,1.5,1.5,1.5H22v-0.8h-5.9c-0.4,0-0.7-0.3-0.7-0.8c0-0.4,0.3-0.8,0.7-0.8h3.3   c0.6,0,1.1-0.5,1.1-1.2v-0.8h0.7c0.2,0,0.4-0.2,0.4-0.4c0,0,0,0,0-0.1l-1.1-6.6l1.2-0.6C21.9,11,22,10.9,22,10.7z M13.2,10.1   l-0.7-0.4V9.4L13.2,9V10.1z M15,0.8h4.4v0.8H15V0.8z M15,4.6V2.3h4.4v2.3c0,1-0.6,1.9-1.6,2.2c-0.2,0-0.3,0.2-0.3,0.4V8h-0.7V7.2   c0-0.2-0.1-0.3-0.3-0.4C15.7,6.5,15,5.6,15,4.6z M16.6,11.9l0.2-0.8h0.5l0.1,0.8H16.6z M21.3,10.5L20,11.1   c-0.1,0.1-0.2,0.2-0.2,0.4l0.1,0.3h-0.8v0.8H20l0.1,0.8h-0.7v0.8h0.8l0.1,0.8h-0.5v0.8h0.7l0.1,0.8h-0.4v0.8h0.5l0.1,0.8h-1.5   l-1.4-7.4c0-0.2-0.2-0.3-0.4-0.3h-3.7V8.8h5.2l0.3,0.9c0,0.2,0.2,0.3,0.3,0.3h1.5V10.5z"
   id="path10"
   style="fill:#bb261a;fill-opacity:1" />
	<path
   class="st0"
   d="M11,9.2H8.4V10H11V9.2z"
   id="path12"
   style="fill:#bb261a;fill-opacity:1" />
	<path
   class="st0"
   d="M9,6.9L8.6,7.6l2.2,1.1l0.3-0.7L9,6.9z"
   id="path14"
   style="fill:#bb261a;fill-opacity:1" />
	<path
   class="st0"
   d="M10.8,10.4l-2.2,1.1l0.3,0.7l2.2-1.1L10.8,10.4z"
   id="path16"
   style="fill:#bb261a;fill-opacity:1" />
	<path
   class="st0"
   d="M7.7,9.2H7V10h0.7V9.2z"
   id="path18"
   style="fill:#bb261a;fill-opacity:1" />
	<path
   class="st0"
   d="M8.1,6.5H7.3v0.8h0.7V6.5z"
   id="path20"
   style="fill:#bb261a;fill-opacity:1" />
	<path
   class="st0"
   d="M7,7.7H6.2v0.8H7V7.7z"
   id="path22"
   style="fill:#bb261a;fill-opacity:1" />
	<path
   class="st0"
   d="M16.5,4.6h-0.7c0,0.8,0.7,1.5,1.5,1.5V5.4C16.8,5.4,16.5,5,16.5,4.6z"
   id="path24"
   style="fill:#bb261a;fill-opacity:1" />
	<path
   class="st0"
   d="M16.5,3.1h-0.7v0.8h0.7V3.1z"
   id="path26"
   style="fill:#bb261a;fill-opacity:1" />
</g>
</svg>
