<svg width="25" height="25" viewBox="0 0 25 25" fill="none" xmlns="http://www.w3.org/2000/svg">
<path d="M23.6253 23.0957H21.6828C21.5923 23.0957 21.5055 23.0598 21.4414 22.9959C21.3773 22.932 21.3412 22.8452 21.341 22.7547L21.3312 18.7012H18.7425C18.698 18.701 18.654 18.692 18.613 18.6747C18.572 18.6574 18.5349 18.6321 18.5038 18.6003C18.4727 18.5685 18.4482 18.5308 18.4318 18.4894C18.4154 18.4481 18.4074 18.4039 18.4082 18.3594V17.3828C18.4074 17.3383 18.4154 17.2941 18.4318 17.2528C18.4482 17.2114 18.4727 17.1737 18.5038 17.1419C18.5349 17.1101 18.572 17.0848 18.613 17.0675C18.654 17.0502 18.698 17.0412 18.7425 17.041H22.0703V2.2461C22.072 2.15468 22.1096 2.06759 22.175 2.00364C22.2403 1.9397 22.3282 1.90401 22.4196 1.9043H23.6253C23.7167 1.90401 23.8046 1.9397 23.87 2.00364C23.9353 2.06759 23.9729 2.15468 23.9746 2.2461V22.7539C23.9729 22.8453 23.9353 22.9324 23.87 22.9964C23.8046 23.0603 23.7167 23.096 23.6253 23.0957ZM23.291 2.58789H22.7539V17.041H23.291V2.58789ZM23.291 17.7246H19.0918V18.0176H21.6722C21.7627 18.0176 21.8495 18.0535 21.9136 18.1174C21.9776 18.1813 22.0137 18.268 22.014 18.3585L22.0238 22.4121H23.291V17.7246Z" fill="white"/>
<path d="M6.59198 17.3828V18.3594C6.59282 18.4039 6.58481 18.4481 6.5684 18.4894C6.55199 18.5308 6.52752 18.5685 6.49641 18.6003C6.4653 18.6321 6.42818 18.6574 6.3872 18.6747C6.34621 18.692 6.3022 18.701 6.2577 18.7012H3.66898L3.65921 22.7547C3.65899 22.8452 3.62288 22.932 3.55881 22.9959C3.49473 23.0598 3.40792 23.0957 3.31742 23.0957H1.37493C1.28349 23.096 1.19559 23.0603 1.13023 22.9964C1.06486 22.9324 1.02727 22.8453 1.02557 22.7539V2.2461C1.02727 2.15468 1.06486 2.06759 1.13021 2.00364C1.19557 1.9397 1.28345 1.90401 1.37488 1.9043H2.58055C2.67199 1.90401 2.75987 1.9397 2.82522 2.00364C2.89058 2.06759 2.92816 2.15468 2.92987 2.2461V17.041H6.2577C6.3022 17.0412 6.34621 17.0502 6.3872 17.0675C6.42818 17.0848 6.4653 17.1101 6.49641 17.1419C6.52752 17.1737 6.55199 17.2114 6.5684 17.2528C6.58481 17.2941 6.59282 17.3383 6.59198 17.3828ZM2.24627 2.58789H1.70916V17.041H2.24627V2.58789ZM5.90839 17.7246H1.70916V22.4121H2.97635L2.98612 18.3585C2.98634 18.268 3.02244 18.1813 3.08652 18.1174C3.15059 18.0535 3.23741 18.0176 3.32791 18.0176H5.90839V17.7246Z" fill="white"/>
<path d="M16.7372 11.182C16.5586 11.7288 15.9681 12.1582 15.393 12.1582H9.62717C9.05378 12.1582 8.46017 11.7318 8.27526 11.1889L8.01779 10.4313C8.00029 10.3783 7.99532 10.322 8.00325 10.2667C8.01118 10.2115 8.0318 10.1589 8.06349 10.113C8.09465 10.0676 8.13603 10.0302 8.1843 10.0038C8.23257 9.97741 8.28638 9.96272 8.34137 9.96094H16.6585C16.7131 9.96298 16.7665 9.97762 16.8145 10.0037C16.8626 10.0298 16.9039 10.0666 16.9354 10.1113C16.9668 10.1561 16.9875 10.2074 16.9959 10.2615C17.0042 10.3155 16.9999 10.3707 16.9834 10.4228L16.7372 11.182ZM8.81862 10.6445L8.92243 10.9598C9.01227 11.2239 9.34821 11.4746 9.62717 11.4746H15.393C15.6752 11.4746 15.9997 11.2291 16.0874 10.9608L16.1873 10.6445H8.81862Z" fill="white"/>
<path d="M20.2148 14.5791V15.8314C20.2147 15.9268 20.1956 16.0213 20.1588 16.1093C20.1219 16.1972 20.068 16.2771 20.0001 16.3441C19.9323 16.4112 19.8518 16.4641 19.7634 16.4999C19.675 16.5357 19.5804 16.5537 19.485 16.5527H18.2851C18.1909 16.5532 18.0976 16.5348 18.0107 16.4985C17.9237 16.4623 17.845 16.4089 17.779 16.3417C17.7131 16.2744 17.6613 16.1946 17.6268 16.1069C17.5923 16.0193 17.5758 15.9256 17.5781 15.8314V14.6973H7.51953V15.8314C7.52053 15.9263 7.50262 16.0203 7.46685 16.1082C7.43108 16.196 7.37816 16.2758 7.3112 16.343C7.24424 16.4101 7.16456 16.4633 7.07683 16.4993C6.9891 16.5353 6.89508 16.5535 6.80024 16.5527H5.51494C5.41956 16.5537 5.32493 16.5357 5.23652 16.4999C5.14811 16.4641 5.06766 16.4111 4.99982 16.3441C4.93197 16.277 4.87808 16.1972 4.84123 16.1092C4.80439 16.0212 4.78533 15.9268 4.78516 15.8314V14.5791C4.43951 14.4377 4.14363 14.1969 3.935 13.8871C3.72638 13.5774 3.61441 13.2127 3.61328 12.8393V10.4726C3.61328 9.99248 3.87422 9.43745 4.31152 8.98745C4.55151 8.74058 5.20835 8.24756 5.48828 8.04067C5.56836 7.5418 5.85273 5.83003 6.08516 5.2063C6.46157 4.19502 7.25098 3.56445 8.14536 3.56445H16.8359C17.7479 3.56445 18.5854 4.22769 18.9197 5.21143C19.1304 5.83184 19.4217 7.51045 19.5083 8.02393C19.7707 8.22236 20.4659 8.75454 20.6899 8.98232C21.0254 9.32349 21.3867 9.93584 21.3867 10.4726V12.8393C21.3856 13.2127 21.2736 13.5774 21.065 13.8872C20.8564 14.1969 20.5605 14.4377 20.2148 14.5791ZM18.2617 15.8314C18.2617 15.8574 18.2591 15.8691 18.2851 15.8691H19.485C19.5109 15.8691 19.5312 15.8574 19.5312 15.8314V14.7173C19.5312 14.7173 19.5161 14.6973 19.5081 14.6973H18.2617V15.8314ZM5.46875 15.8314C5.46875 15.8574 5.48897 15.8691 5.51494 15.8691H6.80024C6.82622 15.8691 6.83594 15.8574 6.83594 15.8314V14.6973H5.49194C5.48384 14.6973 5.46875 14.7174 5.46875 14.7173V15.8314ZM4.29688 10.6627V11.4746H7.00615C6.98602 11.381 6.94966 11.2916 6.89873 11.2105C6.65459 10.8575 6.25498 10.6787 5.67764 10.6643C5.46069 10.6587 4.72578 10.6608 4.29688 10.6627ZM18.2724 5.43135C18.0322 4.725 17.455 4.24805 16.8359 4.24805H8.14536C7.53501 4.24805 7.0041 4.69692 6.72554 5.44497C6.54258 5.93594 6.30708 7.27783 6.19985 7.92339C7.16587 8.01567 9.92441 8.25542 12.5715 8.25542C15.203 8.25542 17.8545 8.01816 18.7978 7.92495C18.6858 7.27764 18.4428 5.93296 18.2724 5.43135ZM20.7031 10.6627C20.2813 10.6609 19.5416 10.6586 19.3221 10.6642C18.7449 10.6788 18.3456 10.8575 18.1011 11.2105C18.0498 11.2914 18.0134 11.3809 17.9937 11.4746H20.7031V10.6627ZM20.7031 12.1582H17.6067C17.5161 12.1582 17.4292 12.1222 17.3651 12.0581C17.301 11.994 17.2649 11.9071 17.2649 11.8164C17.2649 11.7551 17.2726 11.2065 17.539 10.8216C17.9112 10.2838 18.5054 10.001 19.305 9.98101C19.5112 9.97578 20.1299 9.97705 20.5624 9.97876C20.4693 9.78939 20.348 9.61528 20.2025 9.4624C20.032 9.28906 19.4304 8.82397 19.1108 8.58174C18.4792 8.64766 15.5143 8.9396 12.5715 8.9396C9.64263 8.9396 6.58032 8.65039 5.90498 8.58281C5.58799 8.81719 4.98989 9.27026 4.80147 9.46406C4.65242 9.61572 4.52744 9.78927 4.43086 9.97871C4.86807 9.97705 5.48955 9.97578 5.69492 9.98096C6.49458 10.0009 7.08877 10.2837 7.46094 10.8215C7.72734 11.2064 7.73501 11.7551 7.73501 11.8164C7.73501 11.9071 7.699 11.994 7.6349 12.0581C7.5708 12.1222 7.48386 12.1582 7.39321 12.1582H4.29688V12.8393C4.29745 12.9951 4.32891 13.1492 4.38943 13.2928C4.44995 13.4364 4.53833 13.5665 4.64946 13.6757C4.76059 13.7849 4.89226 13.871 5.03687 13.929C5.18148 13.987 5.33615 14.0158 5.49194 14.0137H19.5081C19.6639 14.0158 19.8185 13.987 19.9631 13.929C20.1077 13.871 20.2394 13.7849 20.3505 13.6757C20.4617 13.5665 20.55 13.4364 20.6106 13.2928C20.6711 13.1492 20.7025 12.9951 20.7031 12.8393V12.1582Z" fill="white"/>
<path d="M9.97945 12.4512H15.0203C15.1109 12.4512 15.1979 12.4872 15.262 12.5513C15.3261 12.6154 15.3621 12.7023 15.3621 12.793C15.3621 12.8836 15.3261 12.9706 15.262 13.0347C15.1979 13.0988 15.1109 13.1348 15.0203 13.1348H9.97945C9.8888 13.1348 9.80186 13.0988 9.73776 13.0347C9.67366 12.9706 9.63765 12.8836 9.63765 12.793C9.63765 12.7023 9.67366 12.6154 9.73776 12.5513C9.80186 12.4872 9.8888 12.4512 9.97945 12.4512Z" fill="white"/>
</svg>
