<svg width="22" height="21" viewBox="0 0 22 21" fill="none" xmlns="http://www.w3.org/2000/svg">
<path d="M2.1936 17.5584C1.95106 17.5584 1.75464 17.755 1.75464 17.9974V18.1876C1.75464 18.8088 2.26008 19.3142 2.8813 19.3142H4.13962C4.76088 19.3142 5.26632 18.8088 5.26632 18.1876V17.9974C5.26632 17.755 5.06985 17.5584 4.82736 17.5584C4.58487 17.5584 4.3884 17.755 4.3884 17.9974V18.1876C4.3884 18.3248 4.27688 18.4363 4.13966 18.4363H2.8813C2.74403 18.4363 2.63256 18.3248 2.63256 18.1876V17.9974C2.63256 17.755 2.43614 17.5584 2.1936 17.5584Z" fill="white"/>
<path d="M20.6309 19.7529H0.43896C0.196423 19.7529 0 19.9496 0 20.1919C0 20.4344 0.196466 20.6309 0.43896 20.6309H20.6309C20.8733 20.6309 21.0697 20.4344 21.0697 20.1919C21.0697 19.9496 20.8732 19.7529 20.6309 19.7529Z" fill="white"/>
<path d="M4.85353 11.5563C4.14934 11.4392 3.51245 11.9829 3.51245 12.6924V12.8938C3.51245 13.529 4.02926 14.0456 4.66443 14.0456H5.87216C6.50733 14.0456 7.02413 13.529 7.02413 12.8938C7.02413 12.3283 6.61927 11.8506 6.06152 11.7575L4.85353 11.5563ZM6.14621 12.8938C6.14621 13.0448 6.02316 13.1678 5.87216 13.1678H4.66443C4.51325 13.1678 4.39037 13.0448 4.39037 12.8938V12.6924C4.39037 12.5354 4.51967 12.4184 4.66227 12.4184C4.70645 12.4184 4.65414 12.4145 5.9172 12.6236C6.0499 12.6457 6.14621 12.7593 6.14621 12.8938Z" fill="white"/>
<path d="M12.7292 9.65597C12.9716 9.65597 13.1684 9.45955 13.1684 9.21701C13.1684 8.97447 12.9716 8.77805 12.7292 8.77805H12.0331L10.8447 7.58982C10.6735 7.4185 10.3956 7.41828 10.2241 7.58982C10.0525 7.76114 10.0525 8.03907 10.2241 8.21061L10.7915 8.77801H9.87606L8.69085 7.19779C8.54549 7.00395 8.27031 6.96451 8.0763 7.11008C7.88242 7.25549 7.8432 7.53062 7.9886 7.7245L8.77881 8.77805H5.70605C5.46351 8.77805 5.26709 8.97452 5.26709 9.21701C5.26709 9.45951 5.46351 9.65597 5.70605 9.65597H12.7292Z" fill="white"/>
<path d="M0.43896 10.0973H2.09125L2.4751 10.2893C2.45749 10.3015 2.44014 10.3141 2.42149 10.3255C2.00462 10.5807 1.75588 11.0096 1.75588 11.4728V16.6816C1.75588 16.9241 1.95235 17.1205 2.19484 17.1205H10.5351C10.7774 17.1205 10.9738 16.9241 10.9738 16.6816C10.9738 16.4392 10.7774 16.2426 10.5351 16.2426H2.63376V11.4728C2.63376 11.3176 2.72577 11.1687 2.87991 11.0742C3.30944 10.8113 3.61075 10.4081 3.72847 9.93911L5.12083 4.39086H14.0468C14.2891 4.39086 14.4855 4.19444 14.4855 3.9519C14.4855 3.70958 14.289 3.51294 14.0468 3.51294H4.77862C4.57746 3.51294 4.40183 3.64995 4.3527 3.84508L2.92538 9.53291L2.63376 9.38708V7.46354C2.63376 7.15108 2.31532 6.93795 2.02602 7.05846L0.270179 7.78995C0.106565 7.85815 7.07564e-09 8.01789 7.07564e-09 8.19524V9.65838C-4.30493e-05 9.90092 0.196423 10.0973 0.43896 10.0973ZM0.87792 8.48776L1.75584 8.12213V9.21942H0.87792V8.48776Z" fill="white"/>
<path d="M4.82935 0H5.70727V0.877919H4.82935V0Z" fill="white"/>
<path d="M7.02271 0H7.90063V0.877919H7.02271V0Z" fill="white"/>
<path d="M9.21777 0H10.0957V0.877919H9.21777V0Z" fill="white"/>
<path d="M11.4127 0H12.2907V0.877919H11.4127V0Z" fill="white"/>
<path d="M13.6078 0H14.4857V0.877919H13.6078V0Z" fill="white"/>
<path d="M19.3148 13.026V6.81279C20.3767 6.30886 21.0703 5.22978 21.0703 4.03643C21.0703 2.94366 20.4818 1.92438 19.5344 1.37606C19.3989 1.29735 19.2312 1.29714 19.0953 1.37563C18.9593 1.45412 18.8756 1.59909 18.8756 1.75586V3.72014L17.9977 4.01262L17.1198 3.72014V1.75586C17.1198 1.59909 17.0361 1.45412 16.9002 1.37563C16.7642 1.29735 16.597 1.29735 16.461 1.37606C15.5136 1.92438 14.9252 2.94361 14.9252 4.03643C14.9252 5.22978 15.6191 6.30886 16.681 6.81279V13.026C15.6191 13.5302 14.9252 14.6093 14.9252 15.8024C14.9252 16.8952 15.5136 17.9146 16.461 18.463C16.5965 18.5414 16.7642 18.5417 16.9002 18.4632C17.0361 18.3849 17.1198 18.2399 17.1198 18.083V16.1189L17.9977 15.8262L18.8756 16.1189V18.083C18.8756 18.24 18.9593 18.3849 19.0953 18.4632C19.2325 18.5423 19.3998 18.5408 19.5344 18.463C20.4818 17.9146 21.0703 16.8952 21.0703 15.8024C21.0703 14.6093 20.3767 13.5302 19.3148 13.026ZM19.7536 17.1169V15.8024C19.7536 15.6135 19.6326 15.4458 19.4534 15.386L18.1367 14.947C18.0466 14.917 17.9492 14.917 17.8588 14.947L16.5421 15.386C16.3628 15.4458 16.2419 15.6135 16.2419 15.8024V17.1169C15.9618 16.7425 15.8032 16.2823 15.8032 15.8024C15.8032 14.8741 16.3912 14.0425 17.2661 13.733C17.4415 13.6711 17.559 13.5053 17.559 13.3192V6.51966C17.559 6.33375 17.4415 6.16798 17.2661 6.10581C16.3912 5.79636 15.8032 4.96477 15.8032 4.03643C15.8032 3.55652 15.9619 3.09634 16.2419 2.72213V4.03643C16.2419 4.22536 16.3628 4.39307 16.5421 4.45287L17.8588 4.89183C17.9493 4.92184 18.0466 4.92184 18.1367 4.89183L19.4534 4.45287C19.6326 4.39307 19.7536 4.22536 19.7536 4.03643V2.72213C20.0336 3.09634 20.1927 3.55652 20.1927 4.03643C20.1927 4.96473 19.6043 5.79636 18.7294 6.10581C18.554 6.16798 18.4369 6.33375 18.4369 6.51966V13.3191C18.4369 13.5053 18.554 13.671 18.7294 13.733C19.6043 14.0425 20.1927 14.874 20.1927 15.8024C20.1927 16.2823 20.0336 16.7425 19.7536 17.1169Z" fill="white"/>
</svg>
